%TF.GenerationSoftware,KiCad,Pcbnew,10.0.6*%
%TF.CreationDate,2026-09-05T19:03:28+02:00*%
%TF.ProjectId,SmartBeehive,536d6172-7442-4656-9568-6976652e6b69,rev?*%
%TF.SameCoordinates,Original*%
%TF.FileFunction,Copper,L1,Top*%
%TF.FilePolarity,Positive*%
%FSLAX46Y46*%
G04 Gerber Fmt 4.6, Leading zero omitted, Abs format (unit mm)*
G04 Created by KiCad (PCBNEW 10.0.6) date 2026-09-05 19:03:28*
%MOMM*%
%LPD*%
G01*
G04 APERTURE LIST*
%TA.AperFunction,ComponentPad*%
%ADD10R,1.270000X1.270000*%
%TD*%
%TA.AperFunction,ComponentPad*%
%ADD11C,1.270000*%
%TD*%
%TA.AperFunction,ComponentPad*%
%ADD12C,1.600000*%
%TD*%
%TA.AperFunction,ViaPad*%
%ADD13C,0.600000*%
%TD*%
%TA.AperFunction,Conductor*%
%ADD14C,0.400000*%
%TD*%
%TA.AperFunction,Conductor*%
%ADD15C,0.200000*%
%TD*%
G04 APERTURE END LIST*
D10*
%TO.P,U5,1,GND_1*%
%TO.N,GND*%
X137360000Y-99190000D03*
D11*
%TO.P,U5,2,VDD_2*%
%TO.N,+3V3*%
X139900000Y-99190000D03*
%TO.P,U5,3,SD_3*%
%TO.N,Net-(U1-GPIO41)*%
X142440000Y-99190000D03*
%TO.P,U5,4,L/R_4*%
%TO.N,GND*%
X137360000Y-106810000D03*
%TO.P,U5,5,WS_5*%
%TO.N,Net-(U1-GPIO39)*%
X139900000Y-106810000D03*
%TO.P,U5,6,SCK_6*%
%TO.N,Net-(U1-GPIO40)*%
X142440000Y-106810000D03*
%TD*%
D10*
%TO.P,U4,1,VDD_1*%
%TO.N,+3V3*%
X135260000Y-72650000D03*
D11*
%TO.P,U4,2,DATA_2*%
%TO.N,Net-(U1-GPIO14)*%
X137800000Y-72650000D03*
%TO.P,U4,3,GND_3*%
%TO.N,GND*%
X140340000Y-72650000D03*
%TD*%
D10*
%TO.P,U2,1,GND_1*%
%TO.N,GND*%
X150600000Y-82960000D03*
D11*
%TO.P,U2,2,DT_2*%
%TO.N,Net-(U1-GPIO1)*%
X150600000Y-80420000D03*
%TO.P,U2,3,SCK_3*%
%TO.N,Net-(U1-GPIO2)*%
X150600000Y-77880000D03*
%TO.P,U2,4,VCC_4*%
%TO.N,+3V3*%
X150600000Y-75340000D03*
%TO.P,U2,5,E+_5*%
%TO.N,unconnected-(U2-E+-Pad5)*%
X176000000Y-85500000D03*
%TO.P,U2,6,E-_6*%
%TO.N,unconnected-(U2-E--Pad6)*%
X176000000Y-82960000D03*
%TO.P,U2,7,A-_7*%
%TO.N,unconnected-(U2-A--Pad7)*%
X176000000Y-80420000D03*
%TO.P,U2,8,A+_8*%
%TO.N,unconnected-(U2-A+-Pad8)*%
X176000000Y-77880000D03*
%TO.P,U2,9,B-_9*%
%TO.N,unconnected-(U2-B--Pad9)*%
X176000000Y-75340000D03*
%TO.P,U2,10,B+_10*%
%TO.N,unconnected-(U2-B+-Pad10)*%
X176000000Y-72800000D03*
%TD*%
D10*
%TO.P,U6,1,SDA_1*%
%TO.N,Net-(U1-GPIO38)*%
X134620000Y-114300000D03*
D11*
%TO.P,U6,2,SCL_2*%
%TO.N,Net-(U1-GPIO21)*%
X137160000Y-114300000D03*
%TO.P,U6,3,GND_3*%
%TO.N,GND*%
X139700000Y-114300000D03*
%TO.P,U6,4,VIN_4*%
%TO.N,+3V3*%
X142240000Y-114300000D03*
%TD*%
D12*
%TO.P,R1,1*%
%TO.N,+3V3*%
X141700000Y-78100000D03*
%TO.P,R1,2*%
%TO.N,Net-(U1-GPIO14)*%
X134080000Y-78100000D03*
%TD*%
D10*
%TO.P,U3,1,GND_1*%
%TO.N,GND*%
X162560000Y-100330000D03*
D11*
%TO.P,U3,2,VCC_2*%
%TO.N,+3V3*%
X165100000Y-100330000D03*
%TO.P,U3,3,SCL_3*%
%TO.N,Net-(U1-GPIO21)*%
X167640000Y-100330000D03*
%TO.P,U3,4,SDA_4*%
%TO.N,Net-(U1-GPIO38)*%
X170180000Y-100330000D03*
%TD*%
D10*
%TO.P,U1,1,3V3_1*%
%TO.N,+3V3*%
X100330000Y-76200000D03*
D11*
%TO.P,U1,2,EN_2*%
%TO.N,unconnected-(U1-EN-Pad2)*%
X100330000Y-78740000D03*
%TO.P,U1,3,GPIO4_3*%
%TO.N,unconnected-(U1-GPIO4-Pad3)*%
X100330000Y-81280000D03*
%TO.P,U1,4,GPIO5_4*%
%TO.N,unconnected-(U1-GPIO5-Pad4)*%
X100330000Y-83820000D03*
%TO.P,U1,5,GPIO6_5*%
%TO.N,unconnected-(U1-GPIO6-Pad5)*%
X100330000Y-86360000D03*
%TO.P,U1,6,GPIO7_6*%
%TO.N,unconnected-(U1-GPIO7-Pad6)*%
X100330000Y-88900000D03*
%TO.P,U1,7,GPIO15_7*%
%TO.N,unconnected-(U1-GPIO15-Pad7)*%
X100330000Y-91440000D03*
%TO.P,U1,8,GPIO16_8*%
%TO.N,unconnected-(U1-GPIO16-Pad8)*%
X100330000Y-93980000D03*
%TO.P,U1,9,GPIO17_9*%
%TO.N,unconnected-(U1-GPIO17-Pad9)*%
X100330000Y-96520000D03*
%TO.P,U1,10,GPIO18_10*%
%TO.N,unconnected-(U1-GPIO18-Pad10)*%
X100330000Y-99060000D03*
%TO.P,U1,11,GPIO8_11*%
%TO.N,unconnected-(U1-GPIO8-Pad11)*%
X100330000Y-101600000D03*
%TO.P,U1,12,GPIO3_12*%
%TO.N,unconnected-(U1-GPIO3-Pad12)*%
X100330000Y-104140000D03*
%TO.P,U1,13,GPIO46_13*%
%TO.N,unconnected-(U1-GPIO46-Pad13)*%
X100330000Y-106680000D03*
%TO.P,U1,14,GPIO9_14*%
%TO.N,unconnected-(U1-GPIO9-Pad14)*%
X100330000Y-109220000D03*
%TO.P,U1,15,GPIO10_15*%
%TO.N,unconnected-(U1-GPIO10-Pad15)*%
X100330000Y-111760000D03*
%TO.P,U1,16,GPIO11_16*%
%TO.N,unconnected-(U1-GPIO11-Pad16)*%
X100330000Y-114300000D03*
%TO.P,U1,17,GPIO12_17*%
%TO.N,unconnected-(U1-GPIO12-Pad17)*%
X100330000Y-116840000D03*
%TO.P,U1,18,GPIO13_18*%
%TO.N,unconnected-(U1-GPIO13-Pad18)*%
X100330000Y-119380000D03*
%TO.P,U1,19,GPIO14_19*%
%TO.N,Net-(U1-GPIO14)*%
X100330000Y-121920000D03*
%TO.P,U1,20,5V_20*%
%TO.N,unconnected-(U1-5V-Pad20)*%
X100330000Y-124460000D03*
%TO.P,U1,21,GPIO43_21*%
%TO.N,unconnected-(U1-GPIO43-Pad21)*%
X125730000Y-76200000D03*
%TO.P,U1,22,GPIO44_22*%
%TO.N,unconnected-(U1-GPIO44-Pad22)*%
X125730000Y-78740000D03*
%TO.P,U1,23,GPIO1_23*%
%TO.N,Net-(U1-GPIO1)*%
X125730000Y-81280000D03*
%TO.P,U1,24,GPIO2_24*%
%TO.N,Net-(U1-GPIO2)*%
X125730000Y-83820000D03*
%TO.P,U1,25,GPIO42_25*%
%TO.N,unconnected-(U1-GPIO42-Pad25)*%
X125730000Y-86360000D03*
%TO.P,U1,26,GPIO41_26*%
%TO.N,Net-(U1-GPIO41)*%
X125730000Y-88900000D03*
%TO.P,U1,27,GPIO40_27*%
%TO.N,Net-(U1-GPIO40)*%
X125730000Y-91440000D03*
%TO.P,U1,28,GPIO39_28*%
%TO.N,Net-(U1-GPIO39)*%
X125730000Y-93980000D03*
%TO.P,U1,29,GPIO38_29*%
%TO.N,Net-(U1-GPIO38)*%
X125730000Y-96520000D03*
%TO.P,U1,30,GPIO37_30*%
%TO.N,unconnected-(U1-GPIO37-Pad30)*%
X125730000Y-99060000D03*
%TO.P,U1,31,GPIO36_31*%
%TO.N,unconnected-(U1-GPIO36-Pad31)*%
X125730000Y-101600000D03*
%TO.P,U1,32,GPIO35_32*%
%TO.N,unconnected-(U1-GPIO35-Pad32)*%
X125730000Y-104140000D03*
%TO.P,U1,33,GPIO0_33*%
%TO.N,unconnected-(U1-GPIO0-Pad33)*%
X125730000Y-106680000D03*
%TO.P,U1,34,GPIO45_34*%
%TO.N,unconnected-(U1-GPIO45-Pad34)*%
X125730000Y-109220000D03*
%TO.P,U1,35,GPIO48_35*%
%TO.N,unconnected-(U1-GPIO48-Pad35)*%
X125730000Y-111760000D03*
%TO.P,U1,36,GPIO47_36*%
%TO.N,unconnected-(U1-GPIO47-Pad36)*%
X125730000Y-114300000D03*
%TO.P,U1,37,GPIO21_37*%
%TO.N,Net-(U1-GPIO21)*%
X125730000Y-116840000D03*
%TO.P,U1,38,GPIO20_38*%
%TO.N,unconnected-(U1-GPIO20-Pad38)*%
X125730000Y-119380000D03*
%TO.P,U1,39,GPIO19_39*%
%TO.N,unconnected-(U1-GPIO19-Pad39)*%
X125730000Y-121920000D03*
%TO.P,U1,40,GND_40*%
%TO.N,GND*%
X125730000Y-124460000D03*
%TD*%
D13*
%TO.N,Net-(U1-GPIO2)*%
X144800000Y-78000000D03*
%TO.N,Net-(U1-GPIO38)*%
X161500000Y-110500000D03*
%TD*%
%TO.N,+3V3*%
D14*
X135260000Y-72650000D02*
X135260000Y-70140000D01*
X165100000Y-70100000D02*
X165100000Y-96400000D01*
X135260000Y-70140000D02*
X135300000Y-70100000D01*
X165100000Y-100330000D02*
X165100000Y-114300000D01*
X139900000Y-101800000D02*
X149000000Y-101800000D01*
X100330000Y-76200000D02*
X100330000Y-70130000D01*
X150600000Y-70100000D02*
X165100000Y-70100000D01*
X149000000Y-101800000D02*
X149100000Y-101700000D01*
X149100000Y-101700000D02*
X149100000Y-96400000D01*
X149100000Y-96400000D02*
X165100000Y-96400000D01*
X143500000Y-78100000D02*
X143500000Y-70100000D01*
X165100000Y-96400000D02*
X165100000Y-100330000D01*
X100330000Y-70130000D02*
X100300000Y-70100000D01*
X141700000Y-78100000D02*
X143500000Y-78100000D01*
X100300000Y-70100000D02*
X135300000Y-70100000D01*
X135300000Y-70100000D02*
X143500000Y-70100000D01*
X150600000Y-75340000D02*
X150600000Y-70100000D01*
X143500000Y-70100000D02*
X150600000Y-70100000D01*
X139900000Y-99190000D02*
X139900000Y-101800000D01*
X165100000Y-114300000D02*
X142240000Y-114300000D01*
%TO.N,Net-(U1-GPIO41)*%
D15*
X142440000Y-99190000D02*
X142440000Y-88940000D01*
X142440000Y-88940000D02*
X142400000Y-88900000D01*
X142400000Y-88900000D02*
X125730000Y-88900000D01*
%TO.N,Net-(U1-GPIO39)*%
X139900000Y-106810000D02*
X127070000Y-93980000D01*
X127070000Y-93980000D02*
X125730000Y-93980000D01*
%TO.N,Net-(U1-GPIO40)*%
X127070000Y-91440000D02*
X125730000Y-91440000D01*
X142440000Y-106810000D02*
X127070000Y-91440000D01*
%TO.N,Net-(U1-GPIO14)*%
X100330000Y-121920000D02*
X115100000Y-107150000D01*
X115100000Y-74500000D02*
X134100000Y-74500000D01*
X134080000Y-78100000D02*
X134080000Y-74520000D01*
X134100000Y-74500000D02*
X137800000Y-74500000D01*
X115100000Y-107150000D02*
X115100000Y-74500000D01*
X137800000Y-72650000D02*
X137800000Y-74500000D01*
X134080000Y-74520000D02*
X134100000Y-74500000D01*
%TO.N,Net-(U1-GPIO1)*%
X150600000Y-80420000D02*
X149740000Y-81280000D01*
X149740000Y-81280000D02*
X125730000Y-81280000D01*
%TO.N,Net-(U1-GPIO2)*%
X144920000Y-77880000D02*
X144800000Y-78000000D01*
X150600000Y-77880000D02*
X144920000Y-77880000D01*
%TO.N,Net-(U1-GPIO38)*%
X134620000Y-110620000D02*
X134600000Y-110600000D01*
X161500000Y-110500000D02*
X161400000Y-110500000D01*
X130000000Y-110600000D02*
X134600000Y-110600000D01*
X125730000Y-96520000D02*
X130000000Y-100790000D01*
X130000000Y-100790000D02*
X130000000Y-110600000D01*
X161300000Y-110600000D02*
X134600000Y-110600000D01*
X134620000Y-114300000D02*
X134620000Y-110620000D01*
X161400000Y-110500000D02*
X161300000Y-110600000D01*
%TO.N,Net-(U1-GPIO21)*%
X137200000Y-116840000D02*
X167360000Y-116840000D01*
X167360000Y-116840000D02*
X167640000Y-116560000D01*
X137160000Y-116800000D02*
X137200000Y-116840000D01*
X125730000Y-116840000D02*
X137200000Y-116840000D01*
X167640000Y-116560000D02*
X167640000Y-100330000D01*
X137160000Y-114300000D02*
X137160000Y-116800000D01*
%TD*%
%TA.AperFunction,Conductor*%
%TO.N,GND*%
G36*
X182442539Y-66520185D02*
G01*
X182488294Y-66572989D01*
X182499500Y-66624500D01*
X182499500Y-128375500D01*
X182479815Y-128442539D01*
X182427011Y-128488294D01*
X182375500Y-128499500D01*
X97624500Y-128499500D01*
X97557461Y-128479815D01*
X97511706Y-128427011D01*
X97500500Y-128375500D01*
X97500500Y-124370634D01*
X99194500Y-124370634D01*
X99194500Y-124549365D01*
X99222460Y-124725898D01*
X99222460Y-124725901D01*
X99277689Y-124895878D01*
X99277691Y-124895881D01*
X99358833Y-125055132D01*
X99463889Y-125199728D01*
X99590272Y-125326111D01*
X99734868Y-125431167D01*
X99894119Y-125512309D01*
X99894121Y-125512310D01*
X100052670Y-125563825D01*
X100064103Y-125567540D01*
X100240634Y-125595500D01*
X100240635Y-125595500D01*
X100419365Y-125595500D01*
X100419366Y-125595500D01*
X100595897Y-125567540D01*
X100595900Y-125567539D01*
X100595901Y-125567539D01*
X100765878Y-125512310D01*
X100765878Y-125512309D01*
X100765881Y-125512309D01*
X100925132Y-125431167D01*
X101069728Y-125326111D01*
X101196111Y-125199728D01*
X101301167Y-125055132D01*
X101382309Y-124895881D01*
X101393967Y-124860000D01*
X101437539Y-124725901D01*
X101437539Y-124725900D01*
X101437540Y-124725897D01*
X101465500Y-124549366D01*
X101465500Y-124370668D01*
X124595000Y-124370668D01*
X124595000Y-124549331D01*
X124622946Y-124725780D01*
X124678155Y-124895693D01*
X124759260Y-125054869D01*
X124768651Y-125067793D01*
X124768652Y-125067794D01*
X125330000Y-124506446D01*
X125330000Y-124512661D01*
X125357259Y-124614394D01*
X125409920Y-124705606D01*
X125484394Y-124780080D01*
X125575606Y-124832741D01*
X125677339Y-124860000D01*
X125683554Y-124860000D01*
X125122205Y-125421347D01*
X125122205Y-125421348D01*
X125135129Y-125430738D01*
X125294306Y-125511844D01*
X125464219Y-125567053D01*
X125640669Y-125595000D01*
X125819331Y-125595000D01*
X125995780Y-125567053D01*
X126165693Y-125511844D01*
X126324867Y-125430739D01*
X126324872Y-125430737D01*
X126337794Y-125421347D01*
X125776447Y-124860000D01*
X125782661Y-124860000D01*
X125884394Y-124832741D01*
X125975606Y-124780080D01*
X126050080Y-124705606D01*
X126102741Y-124614394D01*
X126130000Y-124512661D01*
X126130000Y-124506446D01*
X126691348Y-125067794D01*
X126700737Y-125054872D01*
X126700739Y-125054867D01*
X126781844Y-124895693D01*
X126837053Y-124725780D01*
X126865000Y-124549331D01*
X126865000Y-124370668D01*
X126837053Y-124194219D01*
X126781844Y-124024306D01*
X126700738Y-123865129D01*
X126691347Y-123852205D01*
X126130000Y-124413552D01*
X126130000Y-124407339D01*
X126102741Y-124305606D01*
X126050080Y-124214394D01*
X125975606Y-124139920D01*
X125884394Y-124087259D01*
X125782661Y-124060000D01*
X125776447Y-124060000D01*
X126337794Y-123498652D01*
X126337793Y-123498651D01*
X126324869Y-123489260D01*
X126165693Y-123408155D01*
X125995780Y-123352946D01*
X125819331Y-123325000D01*
X125640669Y-123325000D01*
X125464219Y-123352946D01*
X125294306Y-123408155D01*
X125135127Y-123489262D01*
X125122205Y-123498651D01*
X125122204Y-123498651D01*
X125683554Y-124060000D01*
X125677339Y-124060000D01*
X125575606Y-124087259D01*
X125484394Y-124139920D01*
X125409920Y-124214394D01*
X125357259Y-124305606D01*
X125330000Y-124407339D01*
X125330000Y-124413553D01*
X124768651Y-123852204D01*
X124768651Y-123852205D01*
X124759262Y-123865127D01*
X124678155Y-124024306D01*
X124622946Y-124194219D01*
X124595000Y-124370668D01*
X101465500Y-124370668D01*
X101465500Y-124370634D01*
X101437540Y-124194103D01*
X101437539Y-124194099D01*
X101437539Y-124194098D01*
X101382310Y-124024121D01*
X101382308Y-124024118D01*
X101301300Y-123865129D01*
X101301167Y-123864868D01*
X101196111Y-123720272D01*
X101069728Y-123593889D01*
X100925132Y-123488833D01*
X100765881Y-123407691D01*
X100765878Y-123407689D01*
X100595899Y-123352460D01*
X100478209Y-123333820D01*
X100419366Y-123324500D01*
X100240634Y-123324500D01*
X100181790Y-123333820D01*
X100064101Y-123352460D01*
X100064098Y-123352460D01*
X99894121Y-123407689D01*
X99894118Y-123407691D01*
X99734867Y-123488833D01*
X99590270Y-123593890D01*
X99463890Y-123720270D01*
X99358833Y-123864867D01*
X99277691Y-124024118D01*
X99277689Y-124024121D01*
X99222460Y-124194098D01*
X99222460Y-124194101D01*
X99194500Y-124370634D01*
X97500500Y-124370634D01*
X97500500Y-116750634D01*
X99194500Y-116750634D01*
X99194500Y-116929365D01*
X99222460Y-117105898D01*
X99222460Y-117105901D01*
X99277689Y-117275878D01*
X99277691Y-117275881D01*
X99358833Y-117435132D01*
X99463889Y-117579728D01*
X99590272Y-117706111D01*
X99734868Y-117811167D01*
X99894119Y-117892309D01*
X99894121Y-117892310D01*
X100052670Y-117943825D01*
X100064103Y-117947540D01*
X100240634Y-117975500D01*
X100240635Y-117975500D01*
X100419365Y-117975500D01*
X100419366Y-117975500D01*
X100595897Y-117947540D01*
X100595900Y-117947539D01*
X100595901Y-117947539D01*
X100765878Y-117892310D01*
X100765878Y-117892309D01*
X100765881Y-117892309D01*
X100925132Y-117811167D01*
X101069728Y-117706111D01*
X101196111Y-117579728D01*
X101301167Y-117435132D01*
X101382309Y-117275881D01*
X101437540Y-117105897D01*
X101465500Y-116929366D01*
X101465500Y-116750634D01*
X101437540Y-116574103D01*
X101437539Y-116574099D01*
X101437539Y-116574098D01*
X101382310Y-116404121D01*
X101382308Y-116404118D01*
X101301166Y-116244867D01*
X101289125Y-116228294D01*
X101196111Y-116100272D01*
X101069728Y-115973889D01*
X100925132Y-115868833D01*
X100765881Y-115787691D01*
X100765878Y-115787689D01*
X100595899Y-115732460D01*
X100478209Y-115713820D01*
X100419366Y-115704500D01*
X100240634Y-115704500D01*
X100181790Y-115713820D01*
X100064101Y-115732460D01*
X100064098Y-115732460D01*
X99894121Y-115787689D01*
X99894118Y-115787691D01*
X99734867Y-115868833D01*
X99590270Y-115973890D01*
X99463890Y-116100270D01*
X99358833Y-116244867D01*
X99277691Y-116404118D01*
X99277689Y-116404121D01*
X99222460Y-116574098D01*
X99222460Y-116574101D01*
X99194500Y-116750634D01*
X97500500Y-116750634D01*
X97500500Y-114210634D01*
X99194500Y-114210634D01*
X99194500Y-114389365D01*
X99222460Y-114565898D01*
X99222460Y-114565901D01*
X99277689Y-114735878D01*
X99277691Y-114735881D01*
X99358833Y-114895132D01*
X99463889Y-115039728D01*
X99590272Y-115166111D01*
X99734868Y-115271167D01*
X99894119Y-115352309D01*
X99894121Y-115352310D01*
X100052670Y-115403825D01*
X100064103Y-115407540D01*
X100240634Y-115435500D01*
X100240635Y-115435500D01*
X100419365Y-115435500D01*
X100419366Y-115435500D01*
X100595897Y-115407540D01*
X100595900Y-115407539D01*
X100595901Y-115407539D01*
X100765878Y-115352310D01*
X100765878Y-115352309D01*
X100765881Y-115352309D01*
X100925132Y-115271167D01*
X101069728Y-115166111D01*
X101196111Y-115039728D01*
X101301167Y-114895132D01*
X101382309Y-114735881D01*
X101393967Y-114700000D01*
X101437539Y-114565901D01*
X101437539Y-114565900D01*
X101437540Y-114565897D01*
X101465500Y-114389366D01*
X101465500Y-114210634D01*
X101437540Y-114034103D01*
X101437539Y-114034099D01*
X101437539Y-114034098D01*
X101382310Y-113864121D01*
X101382308Y-113864118D01*
X101301300Y-113705129D01*
X101301167Y-113704868D01*
X101196111Y-113560272D01*
X101069728Y-113433889D01*
X100925132Y-113328833D01*
X100765881Y-113247691D01*
X100765878Y-113247689D01*
X100595899Y-113192460D01*
X100459824Y-113170908D01*
X100419366Y-113164500D01*
X100240634Y-113164500D01*
X100200176Y-113170908D01*
X100064101Y-113192460D01*
X100064098Y-113192460D01*
X99894121Y-113247689D01*
X99894118Y-113247691D01*
X99734867Y-113328833D01*
X99590270Y-113433890D01*
X99463890Y-113560270D01*
X99358833Y-113704867D01*
X99277691Y-113864118D01*
X99277689Y-113864121D01*
X99222460Y-114034098D01*
X99222460Y-114034101D01*
X99194500Y-114210634D01*
X97500500Y-114210634D01*
X97500500Y-111670634D01*
X99194500Y-111670634D01*
X99194500Y-111849365D01*
X99222460Y-112025898D01*
X99222460Y-112025901D01*
X99277689Y-112195878D01*
X99277691Y-112195881D01*
X99358833Y-112355132D01*
X99463889Y-112499728D01*
X99590272Y-112626111D01*
X99734868Y-112731167D01*
X99894119Y-112812309D01*
X99894121Y-112812310D01*
X100052670Y-112863825D01*
X100064103Y-112867540D01*
X100240634Y-112895500D01*
X100240635Y-112895500D01*
X100419365Y-112895500D01*
X100419366Y-112895500D01*
X100595897Y-112867540D01*
X100595900Y-112867539D01*
X100595901Y-112867539D01*
X100765878Y-112812310D01*
X100765878Y-112812309D01*
X100765881Y-112812309D01*
X100925132Y-112731167D01*
X101069728Y-112626111D01*
X101196111Y-112499728D01*
X101301167Y-112355132D01*
X101382309Y-112195881D01*
X101437540Y-112025897D01*
X101465500Y-111849366D01*
X101465500Y-111670634D01*
X101437540Y-111494103D01*
X101437539Y-111494099D01*
X101437539Y-111494098D01*
X101382310Y-111324121D01*
X101382308Y-111324118D01*
X101370275Y-111300500D01*
X101301167Y-111164868D01*
X101196111Y-111020272D01*
X101069728Y-110893889D01*
X100925132Y-110788833D01*
X100765881Y-110707691D01*
X100765878Y-110707689D01*
X100595899Y-110652460D01*
X100478209Y-110633820D01*
X100419366Y-110624500D01*
X100240634Y-110624500D01*
X100181790Y-110633820D01*
X100064101Y-110652460D01*
X100064098Y-110652460D01*
X99894121Y-110707689D01*
X99894118Y-110707691D01*
X99734867Y-110788833D01*
X99590270Y-110893890D01*
X99463890Y-111020270D01*
X99358833Y-111164867D01*
X99277691Y-111324118D01*
X99277689Y-111324121D01*
X99222460Y-111494098D01*
X99222460Y-111494101D01*
X99194500Y-111670634D01*
X97500500Y-111670634D01*
X97500500Y-109130634D01*
X99194500Y-109130634D01*
X99194500Y-109309365D01*
X99222460Y-109485898D01*
X99222460Y-109485901D01*
X99277689Y-109655878D01*
X99277691Y-109655881D01*
X99358833Y-109815132D01*
X99463889Y-109959728D01*
X99590272Y-110086111D01*
X99734868Y-110191167D01*
X99894119Y-110272309D01*
X99894121Y-110272310D01*
X100052670Y-110323825D01*
X100064103Y-110327540D01*
X100240634Y-110355500D01*
X100240635Y-110355500D01*
X100419365Y-110355500D01*
X100419366Y-110355500D01*
X100595897Y-110327540D01*
X100595900Y-110327539D01*
X100595901Y-110327539D01*
X100765878Y-110272310D01*
X100765878Y-110272309D01*
X100765881Y-110272309D01*
X100925132Y-110191167D01*
X101069728Y-110086111D01*
X101196111Y-109959728D01*
X101301167Y-109815132D01*
X101382309Y-109655881D01*
X101437540Y-109485897D01*
X101465500Y-109309366D01*
X101465500Y-109130634D01*
X101437540Y-108954103D01*
X101437539Y-108954099D01*
X101437539Y-108954098D01*
X101382310Y-108784121D01*
X101382308Y-108784118D01*
X101301166Y-108624867D01*
X101196111Y-108480272D01*
X101069728Y-108353889D01*
X100925132Y-108248833D01*
X100765881Y-108167691D01*
X100765878Y-108167689D01*
X100595899Y-108112460D01*
X100478209Y-108093820D01*
X100419366Y-108084500D01*
X100240634Y-108084500D01*
X100181790Y-108093820D01*
X100064101Y-108112460D01*
X100064098Y-108112460D01*
X99894121Y-108167689D01*
X99894118Y-108167691D01*
X99734867Y-108248833D01*
X99590270Y-108353890D01*
X99463890Y-108480270D01*
X99358833Y-108624867D01*
X99277691Y-108784118D01*
X99277689Y-108784121D01*
X99222460Y-108954098D01*
X99222460Y-108954101D01*
X99194500Y-109130634D01*
X97500500Y-109130634D01*
X97500500Y-106590634D01*
X99194500Y-106590634D01*
X99194500Y-106769365D01*
X99222460Y-106945898D01*
X99222460Y-106945901D01*
X99277689Y-107115878D01*
X99277691Y-107115881D01*
X99358833Y-107275132D01*
X99463889Y-107419728D01*
X99590272Y-107546111D01*
X99734868Y-107651167D01*
X99894119Y-107732309D01*
X99894121Y-107732310D01*
X100043172Y-107780739D01*
X100064103Y-107787540D01*
X100240634Y-107815500D01*
X100240635Y-107815500D01*
X100419365Y-107815500D01*
X100419366Y-107815500D01*
X100595897Y-107787540D01*
X100595900Y-107787539D01*
X100595901Y-107787539D01*
X100765878Y-107732310D01*
X100765878Y-107732309D01*
X100765881Y-107732309D01*
X100925132Y-107651167D01*
X101069728Y-107546111D01*
X101196111Y-107419728D01*
X101301167Y-107275132D01*
X101382309Y-107115881D01*
X101396910Y-107070943D01*
X101437539Y-106945901D01*
X101437539Y-106945900D01*
X101437540Y-106945897D01*
X101465500Y-106769366D01*
X101465500Y-106590634D01*
X101437540Y-106414103D01*
X101437539Y-106414099D01*
X101437539Y-106414098D01*
X101382310Y-106244121D01*
X101382308Y-106244118D01*
X101367537Y-106215127D01*
X101301167Y-106084868D01*
X101196111Y-105940272D01*
X101069728Y-105813889D01*
X100925132Y-105708833D01*
X100765881Y-105627691D01*
X100765878Y-105627689D01*
X100595899Y-105572460D01*
X100477111Y-105553646D01*
X100419366Y-105544500D01*
X100240634Y-105544500D01*
X100182889Y-105553646D01*
X100064101Y-105572460D01*
X100064098Y-105572460D01*
X99894121Y-105627689D01*
X99894118Y-105627691D01*
X99734867Y-105708833D01*
X99590270Y-105813890D01*
X99463890Y-105940270D01*
X99358833Y-106084867D01*
X99277691Y-106244118D01*
X99277689Y-106244121D01*
X99222460Y-106414098D01*
X99222460Y-106414101D01*
X99194500Y-106590634D01*
X97500500Y-106590634D01*
X97500500Y-104050634D01*
X99194500Y-104050634D01*
X99194500Y-104229365D01*
X99222460Y-104405898D01*
X99222460Y-104405901D01*
X99277689Y-104575878D01*
X99277691Y-104575881D01*
X99358833Y-104735132D01*
X99463889Y-104879728D01*
X99590272Y-105006111D01*
X99734868Y-105111167D01*
X99894119Y-105192309D01*
X99894121Y-105192310D01*
X100052670Y-105243825D01*
X100064103Y-105247540D01*
X100240634Y-105275500D01*
X100240635Y-105275500D01*
X100419365Y-105275500D01*
X100419366Y-105275500D01*
X100595897Y-105247540D01*
X100595900Y-105247539D01*
X100595901Y-105247539D01*
X100765878Y-105192310D01*
X100765878Y-105192309D01*
X100765881Y-105192309D01*
X100925132Y-105111167D01*
X101069728Y-105006111D01*
X101196111Y-104879728D01*
X101301167Y-104735132D01*
X101382309Y-104575881D01*
X101437540Y-104405897D01*
X101465500Y-104229366D01*
X101465500Y-104050634D01*
X101437540Y-103874103D01*
X101437539Y-103874099D01*
X101437539Y-103874098D01*
X101382310Y-103704121D01*
X101382308Y-103704118D01*
X101301166Y-103544867D01*
X101196111Y-103400272D01*
X101069728Y-103273889D01*
X100925132Y-103168833D01*
X100765881Y-103087691D01*
X100765878Y-103087689D01*
X100595899Y-103032460D01*
X100478209Y-103013820D01*
X100419366Y-103004500D01*
X100240634Y-103004500D01*
X100181790Y-103013820D01*
X100064101Y-103032460D01*
X100064098Y-103032460D01*
X99894121Y-103087689D01*
X99894118Y-103087691D01*
X99734867Y-103168833D01*
X99590270Y-103273890D01*
X99463890Y-103400270D01*
X99358833Y-103544867D01*
X99277691Y-103704118D01*
X99277689Y-103704121D01*
X99222460Y-103874098D01*
X99222460Y-103874101D01*
X99194500Y-104050634D01*
X97500500Y-104050634D01*
X97500500Y-101510634D01*
X99194500Y-101510634D01*
X99194500Y-101689365D01*
X99222460Y-101865898D01*
X99222460Y-101865901D01*
X99277689Y-102035877D01*
X99277690Y-102035880D01*
X99277691Y-102035881D01*
X99358833Y-102195132D01*
X99463889Y-102339728D01*
X99590272Y-102466111D01*
X99734868Y-102571167D01*
X99894119Y-102652309D01*
X99894121Y-102652310D01*
X100052670Y-102703825D01*
X100064103Y-102707540D01*
X100240634Y-102735500D01*
X100240635Y-102735500D01*
X100419365Y-102735500D01*
X100419366Y-102735500D01*
X100595897Y-102707540D01*
X100595900Y-102707539D01*
X100595901Y-102707539D01*
X100765878Y-102652310D01*
X100765878Y-102652309D01*
X100765881Y-102652309D01*
X100925132Y-102571167D01*
X101069728Y-102466111D01*
X101196111Y-102339728D01*
X101301167Y-102195132D01*
X101382309Y-102035881D01*
X101382309Y-102035880D01*
X101382311Y-102035877D01*
X101437539Y-101865901D01*
X101437539Y-101865900D01*
X101437540Y-101865897D01*
X101465500Y-101689366D01*
X101465500Y-101510634D01*
X101437540Y-101334103D01*
X101437539Y-101334099D01*
X101437539Y-101334098D01*
X101382310Y-101164121D01*
X101382308Y-101164118D01*
X101335562Y-101072372D01*
X101301167Y-101004868D01*
X101196111Y-100860272D01*
X101069728Y-100733889D01*
X100925132Y-100628833D01*
X100765881Y-100547691D01*
X100765878Y-100547689D01*
X100595899Y-100492460D01*
X100478209Y-100473820D01*
X100419366Y-100464500D01*
X100240634Y-100464500D01*
X100181790Y-100473820D01*
X100064101Y-100492460D01*
X100064098Y-100492460D01*
X99894121Y-100547689D01*
X99894118Y-100547691D01*
X99734867Y-100628833D01*
X99590270Y-100733890D01*
X99463890Y-100860270D01*
X99358833Y-101004867D01*
X99277691Y-101164118D01*
X99277689Y-101164121D01*
X99222460Y-101334098D01*
X99222460Y-101334101D01*
X99194500Y-101510634D01*
X97500500Y-101510634D01*
X97500500Y-98970634D01*
X99194500Y-98970634D01*
X99194500Y-99149365D01*
X99222460Y-99325898D01*
X99222460Y-99325901D01*
X99277689Y-99495878D01*
X99277691Y-99495881D01*
X99358833Y-99655132D01*
X99463889Y-99799728D01*
X99590272Y-99926111D01*
X99734868Y-100031167D01*
X99894119Y-100112309D01*
X99894121Y-100112310D01*
X99999967Y-100146701D01*
X100064103Y-100167540D01*
X100240634Y-100195500D01*
X100240635Y-100195500D01*
X100419365Y-100195500D01*
X100419366Y-100195500D01*
X100595897Y-100167540D01*
X100595900Y-100167539D01*
X100595901Y-100167539D01*
X100765878Y-100112310D01*
X100765878Y-100112309D01*
X100765881Y-100112309D01*
X100925132Y-100031167D01*
X101069728Y-99926111D01*
X101196111Y-99799728D01*
X101301167Y-99655132D01*
X101382309Y-99495881D01*
X101382310Y-99495878D01*
X101437539Y-99325901D01*
X101437539Y-99325900D01*
X101437540Y-99325897D01*
X101465500Y-99149366D01*
X101465500Y-98970634D01*
X101437540Y-98794103D01*
X101437539Y-98794099D01*
X101437539Y-98794098D01*
X101382310Y-98624121D01*
X101382308Y-98624118D01*
X101367405Y-98594868D01*
X101301167Y-98464868D01*
X101196111Y-98320272D01*
X101069728Y-98193889D01*
X100925132Y-98088833D01*
X100765881Y-98007691D01*
X100765878Y-98007689D01*
X100595899Y-97952460D01*
X100478209Y-97933820D01*
X100419366Y-97924500D01*
X100240634Y-97924500D01*
X100181790Y-97933820D01*
X100064101Y-97952460D01*
X100064098Y-97952460D01*
X99894121Y-98007689D01*
X99894118Y-98007691D01*
X99734867Y-98088833D01*
X99590270Y-98193890D01*
X99463890Y-98320270D01*
X99358833Y-98464867D01*
X99277691Y-98624118D01*
X99277689Y-98624121D01*
X99222460Y-98794098D01*
X99222460Y-98794101D01*
X99194500Y-98970634D01*
X97500500Y-98970634D01*
X97500500Y-96430634D01*
X99194500Y-96430634D01*
X99194500Y-96609365D01*
X99222460Y-96785898D01*
X99222460Y-96785901D01*
X99277689Y-96955878D01*
X99277691Y-96955881D01*
X99358833Y-97115132D01*
X99463889Y-97259728D01*
X99590272Y-97386111D01*
X99734868Y-97491167D01*
X99894119Y-97572309D01*
X99894121Y-97572310D01*
X100052670Y-97623825D01*
X100064103Y-97627540D01*
X100240634Y-97655500D01*
X100240635Y-97655500D01*
X100419365Y-97655500D01*
X100419366Y-97655500D01*
X100595897Y-97627540D01*
X100595900Y-97627539D01*
X100595901Y-97627539D01*
X100765878Y-97572310D01*
X100765878Y-97572309D01*
X100765881Y-97572309D01*
X100925132Y-97491167D01*
X101069728Y-97386111D01*
X101196111Y-97259728D01*
X101301167Y-97115132D01*
X101382309Y-96955881D01*
X101437540Y-96785897D01*
X101465500Y-96609366D01*
X101465500Y-96430634D01*
X101437540Y-96254103D01*
X101437539Y-96254099D01*
X101437539Y-96254098D01*
X101382310Y-96084121D01*
X101382308Y-96084118D01*
X101374189Y-96068182D01*
X101301167Y-95924868D01*
X101196111Y-95780272D01*
X101069728Y-95653889D01*
X100925132Y-95548833D01*
X100765881Y-95467691D01*
X100765878Y-95467689D01*
X100595899Y-95412460D01*
X100478209Y-95393820D01*
X100419366Y-95384500D01*
X100240634Y-95384500D01*
X100181790Y-95393820D01*
X100064101Y-95412460D01*
X100064098Y-95412460D01*
X99894121Y-95467689D01*
X99894118Y-95467691D01*
X99734867Y-95548833D01*
X99590270Y-95653890D01*
X99463890Y-95780270D01*
X99358833Y-95924867D01*
X99277691Y-96084118D01*
X99277689Y-96084121D01*
X99222460Y-96254098D01*
X99222460Y-96254101D01*
X99194500Y-96430634D01*
X97500500Y-96430634D01*
X97500500Y-93890634D01*
X99194500Y-93890634D01*
X99194500Y-94069365D01*
X99222460Y-94245898D01*
X99222460Y-94245901D01*
X99277689Y-94415878D01*
X99277691Y-94415881D01*
X99358833Y-94575132D01*
X99463889Y-94719728D01*
X99590272Y-94846111D01*
X99734868Y-94951167D01*
X99894119Y-95032309D01*
X99894121Y-95032310D01*
X100052670Y-95083825D01*
X100064103Y-95087540D01*
X100240634Y-95115500D01*
X100240635Y-95115500D01*
X100419365Y-95115500D01*
X100419366Y-95115500D01*
X100595897Y-95087540D01*
X100595900Y-95087539D01*
X100595901Y-95087539D01*
X100765878Y-95032310D01*
X100765878Y-95032309D01*
X100765881Y-95032309D01*
X100925132Y-94951167D01*
X101069728Y-94846111D01*
X101196111Y-94719728D01*
X101301167Y-94575132D01*
X101382309Y-94415881D01*
X101437540Y-94245897D01*
X101465500Y-94069366D01*
X101465500Y-93890634D01*
X101437540Y-93714103D01*
X101437539Y-93714099D01*
X101437539Y-93714098D01*
X101382310Y-93544121D01*
X101382308Y-93544118D01*
X101359565Y-93499481D01*
X101301167Y-93384868D01*
X101196111Y-93240272D01*
X101069728Y-93113889D01*
X100925132Y-93008833D01*
X100765881Y-92927691D01*
X100765878Y-92927689D01*
X100595899Y-92872460D01*
X100478209Y-92853820D01*
X100419366Y-92844500D01*
X100240634Y-92844500D01*
X100181790Y-92853820D01*
X100064101Y-92872460D01*
X100064098Y-92872460D01*
X99894121Y-92927689D01*
X99894118Y-92927691D01*
X99734867Y-93008833D01*
X99590270Y-93113890D01*
X99463890Y-93240270D01*
X99358833Y-93384867D01*
X99277691Y-93544118D01*
X99277689Y-93544121D01*
X99222460Y-93714098D01*
X99222460Y-93714101D01*
X99194500Y-93890634D01*
X97500500Y-93890634D01*
X97500500Y-91350634D01*
X99194500Y-91350634D01*
X99194500Y-91529365D01*
X99222460Y-91705898D01*
X99222460Y-91705901D01*
X99277689Y-91875878D01*
X99277691Y-91875881D01*
X99358833Y-92035132D01*
X99463889Y-92179728D01*
X99590272Y-92306111D01*
X99734868Y-92411167D01*
X99894119Y-92492309D01*
X99894121Y-92492310D01*
X100052670Y-92543825D01*
X100064103Y-92547540D01*
X100240634Y-92575500D01*
X100240635Y-92575500D01*
X100419365Y-92575500D01*
X100419366Y-92575500D01*
X100595897Y-92547540D01*
X100595900Y-92547539D01*
X100595901Y-92547539D01*
X100765878Y-92492310D01*
X100765878Y-92492309D01*
X100765881Y-92492309D01*
X100925132Y-92411167D01*
X101069728Y-92306111D01*
X101196111Y-92179728D01*
X101301167Y-92035132D01*
X101382309Y-91875881D01*
X101437540Y-91705897D01*
X101465500Y-91529366D01*
X101465500Y-91350634D01*
X101437540Y-91174103D01*
X101437539Y-91174099D01*
X101437539Y-91174098D01*
X101382310Y-91004121D01*
X101382308Y-91004118D01*
X101359565Y-90959481D01*
X101301167Y-90844868D01*
X101196111Y-90700272D01*
X101069728Y-90573889D01*
X100925132Y-90468833D01*
X100765881Y-90387691D01*
X100765878Y-90387689D01*
X100595899Y-90332460D01*
X100478209Y-90313820D01*
X100419366Y-90304500D01*
X100240634Y-90304500D01*
X100181790Y-90313820D01*
X100064101Y-90332460D01*
X100064098Y-90332460D01*
X99894121Y-90387689D01*
X99894118Y-90387691D01*
X99734867Y-90468833D01*
X99590270Y-90573890D01*
X99463890Y-90700270D01*
X99358833Y-90844867D01*
X99277691Y-91004118D01*
X99277689Y-91004121D01*
X99222460Y-91174098D01*
X99222460Y-91174101D01*
X99194500Y-91350634D01*
X97500500Y-91350634D01*
X97500500Y-88810634D01*
X99194500Y-88810634D01*
X99194500Y-88989365D01*
X99222460Y-89165898D01*
X99222460Y-89165901D01*
X99277689Y-89335878D01*
X99277691Y-89335881D01*
X99358833Y-89495132D01*
X99463889Y-89639728D01*
X99590272Y-89766111D01*
X99734868Y-89871167D01*
X99894119Y-89952309D01*
X99894121Y-89952310D01*
X100052670Y-90003825D01*
X100064103Y-90007540D01*
X100240634Y-90035500D01*
X100240635Y-90035500D01*
X100419365Y-90035500D01*
X100419366Y-90035500D01*
X100595897Y-90007540D01*
X100595900Y-90007539D01*
X100595901Y-90007539D01*
X100765878Y-89952310D01*
X100765878Y-89952309D01*
X100765881Y-89952309D01*
X100925132Y-89871167D01*
X101069728Y-89766111D01*
X101196111Y-89639728D01*
X101301167Y-89495132D01*
X101382309Y-89335881D01*
X101437540Y-89165897D01*
X101465500Y-88989366D01*
X101465500Y-88810634D01*
X101437540Y-88634103D01*
X101437539Y-88634099D01*
X101437539Y-88634098D01*
X101382310Y-88464121D01*
X101382308Y-88464118D01*
X101359565Y-88419481D01*
X101301167Y-88304868D01*
X101196111Y-88160272D01*
X101069728Y-88033889D01*
X100925132Y-87928833D01*
X100765881Y-87847691D01*
X100765878Y-87847689D01*
X100595899Y-87792460D01*
X100478209Y-87773820D01*
X100419366Y-87764500D01*
X100240634Y-87764500D01*
X100181790Y-87773820D01*
X100064101Y-87792460D01*
X100064098Y-87792460D01*
X99894121Y-87847689D01*
X99894118Y-87847691D01*
X99734867Y-87928833D01*
X99590270Y-88033890D01*
X99463890Y-88160270D01*
X99358833Y-88304867D01*
X99277691Y-88464118D01*
X99277689Y-88464121D01*
X99222460Y-88634098D01*
X99222460Y-88634101D01*
X99194500Y-88810634D01*
X97500500Y-88810634D01*
X97500500Y-86270634D01*
X99194500Y-86270634D01*
X99194500Y-86449365D01*
X99222460Y-86625898D01*
X99222460Y-86625901D01*
X99277689Y-86795878D01*
X99277691Y-86795881D01*
X99358833Y-86955132D01*
X99463889Y-87099728D01*
X99590272Y-87226111D01*
X99734868Y-87331167D01*
X99894119Y-87412309D01*
X99894121Y-87412310D01*
X100052670Y-87463825D01*
X100064103Y-87467540D01*
X100240634Y-87495500D01*
X100240635Y-87495500D01*
X100419365Y-87495500D01*
X100419366Y-87495500D01*
X100595897Y-87467540D01*
X100595900Y-87467539D01*
X100595901Y-87467539D01*
X100765878Y-87412310D01*
X100765878Y-87412309D01*
X100765881Y-87412309D01*
X100925132Y-87331167D01*
X101069728Y-87226111D01*
X101196111Y-87099728D01*
X101301167Y-86955132D01*
X101382309Y-86795881D01*
X101437540Y-86625897D01*
X101465500Y-86449366D01*
X101465500Y-86270634D01*
X101437540Y-86094103D01*
X101437539Y-86094099D01*
X101437539Y-86094098D01*
X101382310Y-85924121D01*
X101382308Y-85924118D01*
X101301692Y-85765898D01*
X101301167Y-85764868D01*
X101196111Y-85620272D01*
X101069728Y-85493889D01*
X100925132Y-85388833D01*
X100765881Y-85307691D01*
X100765878Y-85307689D01*
X100595899Y-85252460D01*
X100478209Y-85233820D01*
X100419366Y-85224500D01*
X100240634Y-85224500D01*
X100181790Y-85233820D01*
X100064101Y-85252460D01*
X100064098Y-85252460D01*
X99894121Y-85307689D01*
X99894118Y-85307691D01*
X99734867Y-85388833D01*
X99590270Y-85493890D01*
X99463890Y-85620270D01*
X99358833Y-85764867D01*
X99277691Y-85924118D01*
X99277689Y-85924121D01*
X99222460Y-86094098D01*
X99222460Y-86094101D01*
X99194500Y-86270634D01*
X97500500Y-86270634D01*
X97500500Y-83730634D01*
X99194500Y-83730634D01*
X99194500Y-83909365D01*
X99222460Y-84085898D01*
X99222460Y-84085901D01*
X99277689Y-84255878D01*
X99277691Y-84255881D01*
X99358833Y-84415132D01*
X99463889Y-84559728D01*
X99590272Y-84686111D01*
X99734868Y-84791167D01*
X99894119Y-84872309D01*
X99894121Y-84872310D01*
X100052670Y-84923825D01*
X100064103Y-84927540D01*
X100240634Y-84955500D01*
X100240635Y-84955500D01*
X100419365Y-84955500D01*
X100419366Y-84955500D01*
X100595897Y-84927540D01*
X100595900Y-84927539D01*
X100595901Y-84927539D01*
X100765878Y-84872310D01*
X100765878Y-84872309D01*
X100765881Y-84872309D01*
X100925132Y-84791167D01*
X101069728Y-84686111D01*
X101196111Y-84559728D01*
X101301167Y-84415132D01*
X101382309Y-84255881D01*
X101434420Y-84095500D01*
X101437539Y-84085901D01*
X101437539Y-84085900D01*
X101437540Y-84085897D01*
X101465500Y-83909366D01*
X101465500Y-83730634D01*
X101437540Y-83554103D01*
X101437539Y-83554099D01*
X101437539Y-83554098D01*
X101382310Y-83384121D01*
X101382308Y-83384118D01*
X101370020Y-83360000D01*
X101301167Y-83224868D01*
X101196111Y-83080272D01*
X101069728Y-82953889D01*
X100925132Y-82848833D01*
X100765881Y-82767691D01*
X100765878Y-82767689D01*
X100595899Y-82712460D01*
X100478209Y-82693820D01*
X100419366Y-82684500D01*
X100240634Y-82684500D01*
X100181790Y-82693820D01*
X100064101Y-82712460D01*
X100064098Y-82712460D01*
X99894121Y-82767689D01*
X99894118Y-82767691D01*
X99734867Y-82848833D01*
X99590270Y-82953890D01*
X99463890Y-83080270D01*
X99358833Y-83224867D01*
X99277691Y-83384118D01*
X99277689Y-83384121D01*
X99222460Y-83554098D01*
X99222460Y-83554101D01*
X99194500Y-83730634D01*
X97500500Y-83730634D01*
X97500500Y-81190634D01*
X99194500Y-81190634D01*
X99194500Y-81369365D01*
X99222460Y-81545898D01*
X99222460Y-81545901D01*
X99277689Y-81715878D01*
X99277691Y-81715881D01*
X99358833Y-81875132D01*
X99463889Y-82019728D01*
X99590272Y-82146111D01*
X99734868Y-82251167D01*
X99894119Y-82332309D01*
X99894121Y-82332310D01*
X100052670Y-82383825D01*
X100064103Y-82387540D01*
X100240634Y-82415500D01*
X100240635Y-82415500D01*
X100419365Y-82415500D01*
X100419366Y-82415500D01*
X100595897Y-82387540D01*
X100595900Y-82387539D01*
X100595901Y-82387539D01*
X100765878Y-82332310D01*
X100765878Y-82332309D01*
X100765881Y-82332309D01*
X100925132Y-82251167D01*
X101069728Y-82146111D01*
X101196111Y-82019728D01*
X101301167Y-81875132D01*
X101382309Y-81715881D01*
X101404133Y-81648713D01*
X101437539Y-81545901D01*
X101437539Y-81545900D01*
X101437540Y-81545897D01*
X101465500Y-81369366D01*
X101465500Y-81190634D01*
X101437540Y-81014103D01*
X101437539Y-81014099D01*
X101437539Y-81014098D01*
X101382310Y-80844121D01*
X101382308Y-80844118D01*
X101301692Y-80685898D01*
X101301167Y-80684868D01*
X101196111Y-80540272D01*
X101069728Y-80413889D01*
X100925132Y-80308833D01*
X100765881Y-80227691D01*
X100765878Y-80227689D01*
X100595899Y-80172460D01*
X100478209Y-80153820D01*
X100419366Y-80144500D01*
X100240634Y-80144500D01*
X100181790Y-80153820D01*
X100064101Y-80172460D01*
X100064098Y-80172460D01*
X99894121Y-80227689D01*
X99894118Y-80227691D01*
X99734867Y-80308833D01*
X99590270Y-80413890D01*
X99463890Y-80540270D01*
X99358833Y-80684867D01*
X99277691Y-80844118D01*
X99277689Y-80844121D01*
X99222460Y-81014098D01*
X99222460Y-81014101D01*
X99194500Y-81190634D01*
X97500500Y-81190634D01*
X97500500Y-78650634D01*
X99194500Y-78650634D01*
X99194500Y-78829365D01*
X99222460Y-79005898D01*
X99222460Y-79005901D01*
X99277689Y-79175878D01*
X99277691Y-79175881D01*
X99358833Y-79335132D01*
X99463889Y-79479728D01*
X99590272Y-79606111D01*
X99734868Y-79711167D01*
X99894119Y-79792309D01*
X99894121Y-79792310D01*
X100052670Y-79843825D01*
X100064103Y-79847540D01*
X100240634Y-79875500D01*
X100240635Y-79875500D01*
X100419365Y-79875500D01*
X100419366Y-79875500D01*
X100595897Y-79847540D01*
X100595900Y-79847539D01*
X100595901Y-79847539D01*
X100765878Y-79792310D01*
X100765878Y-79792309D01*
X100765881Y-79792309D01*
X100925132Y-79711167D01*
X101069728Y-79606111D01*
X101196111Y-79479728D01*
X101301167Y-79335132D01*
X101382309Y-79175881D01*
X101437540Y-79005897D01*
X101465500Y-78829366D01*
X101465500Y-78650634D01*
X101437540Y-78474103D01*
X101437539Y-78474099D01*
X101437539Y-78474098D01*
X101382310Y-78304121D01*
X101382308Y-78304118D01*
X101330456Y-78202351D01*
X101301167Y-78144868D01*
X101196111Y-78000272D01*
X101069728Y-77873889D01*
X100925132Y-77768833D01*
X100765881Y-77687691D01*
X100765878Y-77687689D01*
X100595899Y-77632460D01*
X100478209Y-77613820D01*
X100419366Y-77604500D01*
X100240634Y-77604500D01*
X100181790Y-77613820D01*
X100064101Y-77632460D01*
X100064098Y-77632460D01*
X99894121Y-77687689D01*
X99894118Y-77687691D01*
X99734867Y-77768833D01*
X99590270Y-77873890D01*
X99463890Y-78000270D01*
X99358833Y-78144867D01*
X99277691Y-78304118D01*
X99277689Y-78304121D01*
X99222460Y-78474098D01*
X99222460Y-78474101D01*
X99194500Y-78650634D01*
X97500500Y-78650634D01*
X97500500Y-75517135D01*
X99194500Y-75517135D01*
X99194500Y-76882870D01*
X99194501Y-76882876D01*
X99200908Y-76942483D01*
X99251202Y-77077328D01*
X99251206Y-77077335D01*
X99337452Y-77192544D01*
X99337455Y-77192547D01*
X99452664Y-77278793D01*
X99452671Y-77278797D01*
X99587517Y-77329091D01*
X99587516Y-77329091D01*
X99594214Y-77329811D01*
X99647127Y-77335500D01*
X101012872Y-77335499D01*
X101072483Y-77329091D01*
X101207331Y-77278796D01*
X101322546Y-77192546D01*
X101408796Y-77077331D01*
X101459091Y-76942483D01*
X101465500Y-76882873D01*
X101465499Y-75793713D01*
X108649500Y-75793713D01*
X108649500Y-76006287D01*
X108682754Y-76216243D01*
X108739961Y-76392308D01*
X108748444Y-76418414D01*
X108844951Y-76607820D01*
X108969890Y-76779786D01*
X109120213Y-76930109D01*
X109292179Y-77055048D01*
X109292181Y-77055049D01*
X109292184Y-77055051D01*
X109481588Y-77151557D01*
X109683757Y-77217246D01*
X109893713Y-77250500D01*
X109893714Y-77250500D01*
X110106286Y-77250500D01*
X110106287Y-77250500D01*
X110316243Y-77217246D01*
X110518412Y-77151557D01*
X110707816Y-77055051D01*
X110800497Y-76987715D01*
X110879786Y-76930109D01*
X110879788Y-76930106D01*
X110879792Y-76930104D01*
X111030104Y-76779792D01*
X111030106Y-76779788D01*
X111030109Y-76779786D01*
X111155048Y-76607820D01*
X111155047Y-76607820D01*
X111155051Y-76607816D01*
X111251557Y-76418412D01*
X111317246Y-76216243D01*
X111350500Y-76006287D01*
X111350500Y-75793713D01*
X111317246Y-75583757D01*
X111251557Y-75381588D01*
X111155051Y-75192184D01*
X111155049Y-75192181D01*
X111155048Y-75192179D01*
X111030109Y-75020213D01*
X110879786Y-74869890D01*
X110707820Y-74744951D01*
X110518414Y-74648444D01*
X110518413Y-74648443D01*
X110518412Y-74648443D01*
X110316243Y-74582754D01*
X110316241Y-74582753D01*
X110316240Y-74582753D01*
X110154957Y-74557208D01*
X110106287Y-74549500D01*
X109893713Y-74549500D01*
X109845042Y-74557208D01*
X109683760Y-74582753D01*
X109481585Y-74648444D01*
X109292179Y-74744951D01*
X109120213Y-74869890D01*
X108969890Y-75020213D01*
X108844951Y-75192179D01*
X108748444Y-75381585D01*
X108682753Y-75583760D01*
X108656341Y-75750521D01*
X108649500Y-75793713D01*
X101465499Y-75793713D01*
X101465499Y-75517128D01*
X101459091Y-75457517D01*
X101448591Y-75429366D01*
X101408797Y-75322671D01*
X101408793Y-75322664D01*
X101322547Y-75207455D01*
X101322544Y-75207452D01*
X101207335Y-75121206D01*
X101207330Y-75121203D01*
X101111166Y-75085336D01*
X101055233Y-75043464D01*
X101030816Y-74978000D01*
X101030500Y-74969154D01*
X101030500Y-70924500D01*
X101050185Y-70857461D01*
X101102989Y-70811706D01*
X101154500Y-70800500D01*
X134435500Y-70800500D01*
X134502539Y-70820185D01*
X134548294Y-70872989D01*
X134559500Y-70924500D01*
X134559500Y-71419154D01*
X134539815Y-71486193D01*
X134487011Y-71531948D01*
X134478834Y-71535336D01*
X134382669Y-71571203D01*
X134382664Y-71571206D01*
X134267455Y-71657452D01*
X134267452Y-71657455D01*
X134181206Y-71772664D01*
X134181202Y-71772671D01*
X134130908Y-71907517D01*
X134128073Y-71933890D01*
X134124501Y-71967123D01*
X134124500Y-71967135D01*
X134124500Y-73332870D01*
X134124501Y-73332876D01*
X134130908Y-73392483D01*
X134181202Y-73527328D01*
X134181206Y-73527335D01*
X134248529Y-73617266D01*
X134267454Y-73642546D01*
X134312456Y-73676234D01*
X134354326Y-73732167D01*
X134359310Y-73801859D01*
X134325825Y-73863182D01*
X134264501Y-73896666D01*
X134238144Y-73899500D01*
X115020943Y-73899500D01*
X114868216Y-73940423D01*
X114868209Y-73940426D01*
X114731290Y-74019475D01*
X114731282Y-74019481D01*
X114619481Y-74131282D01*
X114619475Y-74131290D01*
X114540426Y-74268209D01*
X114540423Y-74268216D01*
X114499500Y-74420943D01*
X114499500Y-106849902D01*
X114479815Y-106916941D01*
X114463181Y-106937583D01*
X101647676Y-119753087D01*
X101586353Y-119786572D01*
X101516661Y-119781588D01*
X101460728Y-119739716D01*
X101436311Y-119674252D01*
X101437522Y-119646008D01*
X101437539Y-119645899D01*
X101437540Y-119645897D01*
X101465500Y-119469366D01*
X101465500Y-119290634D01*
X101437540Y-119114103D01*
X101437539Y-119114099D01*
X101437539Y-119114098D01*
X101382310Y-118944121D01*
X101382308Y-118944118D01*
X101331781Y-118844951D01*
X101301167Y-118784868D01*
X101196111Y-118640272D01*
X101069728Y-118513889D01*
X100925132Y-118408833D01*
X100765881Y-118327691D01*
X100765878Y-118327689D01*
X100595899Y-118272460D01*
X100478209Y-118253820D01*
X100419366Y-118244500D01*
X100240634Y-118244500D01*
X100181790Y-118253820D01*
X100064101Y-118272460D01*
X100064098Y-118272460D01*
X99894121Y-118327689D01*
X99894118Y-118327691D01*
X99734867Y-118408833D01*
X99590270Y-118513890D01*
X99463890Y-118640270D01*
X99358833Y-118784867D01*
X99277691Y-118944118D01*
X99277689Y-118944121D01*
X99222460Y-119114098D01*
X99222460Y-119114101D01*
X99194500Y-119290634D01*
X99194500Y-119469365D01*
X99222460Y-119645898D01*
X99222460Y-119645901D01*
X99277689Y-119815878D01*
X99277691Y-119815881D01*
X99358833Y-119975132D01*
X99463889Y-120119728D01*
X99590272Y-120246111D01*
X99734868Y-120351167D01*
X99894119Y-120432309D01*
X99894121Y-120432310D01*
X100052670Y-120483825D01*
X100064103Y-120487540D01*
X100240634Y-120515500D01*
X100240635Y-120515500D01*
X100419365Y-120515500D01*
X100419366Y-120515500D01*
X100595897Y-120487540D01*
X100595899Y-120487539D01*
X100596008Y-120487522D01*
X100665301Y-120496476D01*
X100718753Y-120541473D01*
X100739393Y-120608224D01*
X100720668Y-120675538D01*
X100703087Y-120697676D01*
X100634018Y-120766745D01*
X100572695Y-120800230D01*
X100526939Y-120801537D01*
X100419371Y-120784500D01*
X100419366Y-120784500D01*
X100240634Y-120784500D01*
X100181790Y-120793820D01*
X100064101Y-120812460D01*
X100064098Y-120812460D01*
X99894121Y-120867689D01*
X99894118Y-120867691D01*
X99734867Y-120948833D01*
X99590270Y-121053890D01*
X99463890Y-121180270D01*
X99358833Y-121324867D01*
X99277691Y-121484118D01*
X99277689Y-121484121D01*
X99222460Y-121654098D01*
X99222460Y-121654101D01*
X99194500Y-121830634D01*
X99194500Y-122009365D01*
X99222460Y-122185898D01*
X99222460Y-122185901D01*
X99277689Y-122355878D01*
X99277691Y-122355881D01*
X99358833Y-122515132D01*
X99463889Y-122659728D01*
X99590272Y-122786111D01*
X99734868Y-122891167D01*
X99894119Y-122972309D01*
X99894121Y-122972310D01*
X100052670Y-123023825D01*
X100064103Y-123027540D01*
X100240634Y-123055500D01*
X100240635Y-123055500D01*
X100419365Y-123055500D01*
X100419366Y-123055500D01*
X100595897Y-123027540D01*
X100595900Y-123027539D01*
X100595901Y-123027539D01*
X100765878Y-122972310D01*
X100765878Y-122972309D01*
X100765881Y-122972309D01*
X100925132Y-122891167D01*
X101069728Y-122786111D01*
X101196111Y-122659728D01*
X101301167Y-122515132D01*
X101382309Y-122355881D01*
X101437540Y-122185897D01*
X101465500Y-122009366D01*
X101465500Y-121830634D01*
X124594500Y-121830634D01*
X124594500Y-122009365D01*
X124622460Y-122185898D01*
X124622460Y-122185901D01*
X124677689Y-122355878D01*
X124677691Y-122355881D01*
X124758833Y-122515132D01*
X124863889Y-122659728D01*
X124990272Y-122786111D01*
X125134868Y-122891167D01*
X125294119Y-122972309D01*
X125294121Y-122972310D01*
X125452670Y-123023825D01*
X125464103Y-123027540D01*
X125640634Y-123055500D01*
X125640635Y-123055500D01*
X125819365Y-123055500D01*
X125819366Y-123055500D01*
X125995897Y-123027540D01*
X125995900Y-123027539D01*
X125995901Y-123027539D01*
X126165878Y-122972310D01*
X126165878Y-122972309D01*
X126165881Y-122972309D01*
X126325132Y-122891167D01*
X126469728Y-122786111D01*
X126596111Y-122659728D01*
X126701167Y-122515132D01*
X126782309Y-122355881D01*
X126837540Y-122185897D01*
X126865500Y-122009366D01*
X126865500Y-121830634D01*
X126837540Y-121654103D01*
X126837539Y-121654099D01*
X126837539Y-121654098D01*
X126782310Y-121484121D01*
X126782308Y-121484118D01*
X126701166Y-121324867D01*
X126647903Y-121251557D01*
X126596111Y-121180272D01*
X126469728Y-121053889D01*
X126325132Y-120948833D01*
X126165881Y-120867691D01*
X126165878Y-120867689D01*
X125995899Y-120812460D01*
X125878209Y-120793820D01*
X125819366Y-120784500D01*
X125640634Y-120784500D01*
X125581790Y-120793820D01*
X125464101Y-120812460D01*
X125464098Y-120812460D01*
X125294121Y-120867689D01*
X125294118Y-120867691D01*
X125134867Y-120948833D01*
X124990270Y-121053890D01*
X124863890Y-121180270D01*
X124758833Y-121324867D01*
X124677691Y-121484118D01*
X124677689Y-121484121D01*
X124622460Y-121654098D01*
X124622460Y-121654101D01*
X124594500Y-121830634D01*
X101465500Y-121830634D01*
X101448375Y-121722513D01*
X101448343Y-121722301D01*
X101452987Y-121688027D01*
X101457415Y-121653766D01*
X101457684Y-121653372D01*
X101457726Y-121653065D01*
X101458576Y-121652066D01*
X101483250Y-121615983D01*
X103205520Y-119893713D01*
X108649500Y-119893713D01*
X108649500Y-120106287D01*
X108682754Y-120316243D01*
X108738406Y-120487522D01*
X108748444Y-120518414D01*
X108844951Y-120707820D01*
X108969890Y-120879786D01*
X109120213Y-121030109D01*
X109292179Y-121155048D01*
X109292181Y-121155049D01*
X109292184Y-121155051D01*
X109481588Y-121251557D01*
X109683757Y-121317246D01*
X109893713Y-121350500D01*
X109893714Y-121350500D01*
X110106286Y-121350500D01*
X110106287Y-121350500D01*
X110316243Y-121317246D01*
X110518412Y-121251557D01*
X110707816Y-121155051D01*
X110729789Y-121139086D01*
X110879786Y-121030109D01*
X110879788Y-121030106D01*
X110879792Y-121030104D01*
X111030104Y-120879792D01*
X111030106Y-120879788D01*
X111030109Y-120879786D01*
X111155048Y-120707820D01*
X111155047Y-120707820D01*
X111155051Y-120707816D01*
X111251557Y-120518412D01*
X111317246Y-120316243D01*
X111350500Y-120106287D01*
X111350500Y-119893713D01*
X111317246Y-119683757D01*
X111251557Y-119481588D01*
X111155051Y-119292184D01*
X111155050Y-119292182D01*
X111153925Y-119290634D01*
X124594500Y-119290634D01*
X124594500Y-119469365D01*
X124622460Y-119645898D01*
X124622460Y-119645901D01*
X124677689Y-119815878D01*
X124677691Y-119815881D01*
X124758833Y-119975132D01*
X124863889Y-120119728D01*
X124990272Y-120246111D01*
X125134868Y-120351167D01*
X125294119Y-120432309D01*
X125294121Y-120432310D01*
X125452670Y-120483825D01*
X125464103Y-120487540D01*
X125640634Y-120515500D01*
X125640635Y-120515500D01*
X125819365Y-120515500D01*
X125819366Y-120515500D01*
X125995897Y-120487540D01*
X125995900Y-120487539D01*
X125995901Y-120487539D01*
X126165878Y-120432310D01*
X126165878Y-120432309D01*
X126165881Y-120432309D01*
X126325132Y-120351167D01*
X126469728Y-120246111D01*
X126596111Y-120119728D01*
X126701167Y-119975132D01*
X126742652Y-119893713D01*
X173649500Y-119893713D01*
X173649500Y-120106287D01*
X173682754Y-120316243D01*
X173738406Y-120487522D01*
X173748444Y-120518414D01*
X173844951Y-120707820D01*
X173969890Y-120879786D01*
X174120213Y-121030109D01*
X174292179Y-121155048D01*
X174292181Y-121155049D01*
X174292184Y-121155051D01*
X174481588Y-121251557D01*
X174683757Y-121317246D01*
X174893713Y-121350500D01*
X174893714Y-121350500D01*
X175106286Y-121350500D01*
X175106287Y-121350500D01*
X175316243Y-121317246D01*
X175518412Y-121251557D01*
X175707816Y-121155051D01*
X175729789Y-121139086D01*
X175879786Y-121030109D01*
X175879788Y-121030106D01*
X175879792Y-121030104D01*
X176030104Y-120879792D01*
X176030106Y-120879788D01*
X176030109Y-120879786D01*
X176155048Y-120707820D01*
X176155047Y-120707820D01*
X176155051Y-120707816D01*
X176251557Y-120518412D01*
X176317246Y-120316243D01*
X176350500Y-120106287D01*
X176350500Y-119893713D01*
X176317246Y-119683757D01*
X176251557Y-119481588D01*
X176155051Y-119292184D01*
X176155049Y-119292181D01*
X176155048Y-119292179D01*
X176030109Y-119120213D01*
X175879786Y-118969890D01*
X175707820Y-118844951D01*
X175518414Y-118748444D01*
X175518413Y-118748443D01*
X175518412Y-118748443D01*
X175316243Y-118682754D01*
X175316241Y-118682753D01*
X175316240Y-118682753D01*
X175154957Y-118657208D01*
X175106287Y-118649500D01*
X174893713Y-118649500D01*
X174845042Y-118657208D01*
X174683760Y-118682753D01*
X174481585Y-118748444D01*
X174292179Y-118844951D01*
X174120213Y-118969890D01*
X173969890Y-119120213D01*
X173844951Y-119292179D01*
X173748444Y-119481585D01*
X173682753Y-119683760D01*
X173659188Y-119832544D01*
X173649500Y-119893713D01*
X126742652Y-119893713D01*
X126782309Y-119815881D01*
X126791832Y-119786572D01*
X126837539Y-119645901D01*
X126837539Y-119645900D01*
X126837540Y-119645897D01*
X126865500Y-119469366D01*
X126865500Y-119290634D01*
X126837540Y-119114103D01*
X126837539Y-119114099D01*
X126837539Y-119114098D01*
X126782310Y-118944121D01*
X126782308Y-118944118D01*
X126731781Y-118844951D01*
X126701167Y-118784868D01*
X126596111Y-118640272D01*
X126469728Y-118513889D01*
X126325132Y-118408833D01*
X126165881Y-118327691D01*
X126165878Y-118327689D01*
X125995899Y-118272460D01*
X125878209Y-118253820D01*
X125819366Y-118244500D01*
X125640634Y-118244500D01*
X125581790Y-118253820D01*
X125464101Y-118272460D01*
X125464098Y-118272460D01*
X125294121Y-118327689D01*
X125294118Y-118327691D01*
X125134867Y-118408833D01*
X124990270Y-118513890D01*
X124863890Y-118640270D01*
X124758833Y-118784867D01*
X124677691Y-118944118D01*
X124677689Y-118944121D01*
X124622460Y-119114098D01*
X124622460Y-119114101D01*
X124594500Y-119290634D01*
X111153925Y-119290634D01*
X111030109Y-119120213D01*
X110879786Y-118969890D01*
X110707820Y-118844951D01*
X110518414Y-118748444D01*
X110518413Y-118748443D01*
X110518412Y-118748443D01*
X110316243Y-118682754D01*
X110316241Y-118682753D01*
X110316240Y-118682753D01*
X110154957Y-118657208D01*
X110106287Y-118649500D01*
X109893713Y-118649500D01*
X109845042Y-118657208D01*
X109683760Y-118682753D01*
X109481585Y-118748444D01*
X109292179Y-118844951D01*
X109120213Y-118969890D01*
X108969890Y-119120213D01*
X108844951Y-119292179D01*
X108748444Y-119481585D01*
X108682753Y-119683760D01*
X108659188Y-119832544D01*
X108649500Y-119893713D01*
X103205520Y-119893713D01*
X106348599Y-116750634D01*
X124594500Y-116750634D01*
X124594500Y-116929365D01*
X124622460Y-117105898D01*
X124622460Y-117105901D01*
X124677689Y-117275878D01*
X124677691Y-117275881D01*
X124758833Y-117435132D01*
X124863889Y-117579728D01*
X124990272Y-117706111D01*
X125134868Y-117811167D01*
X125294119Y-117892309D01*
X125294121Y-117892310D01*
X125452670Y-117943825D01*
X125464103Y-117947540D01*
X125640634Y-117975500D01*
X125640635Y-117975500D01*
X125819365Y-117975500D01*
X125819366Y-117975500D01*
X125995897Y-117947540D01*
X125995900Y-117947539D01*
X125995901Y-117947539D01*
X126165878Y-117892310D01*
X126165878Y-117892309D01*
X126165881Y-117892309D01*
X126325132Y-117811167D01*
X126469728Y-117706111D01*
X126596111Y-117579728D01*
X126660130Y-117491613D01*
X126715461Y-117448948D01*
X126760448Y-117440500D01*
X137113331Y-117440500D01*
X137113347Y-117440501D01*
X137120943Y-117440501D01*
X137286654Y-117440501D01*
X137286670Y-117440500D01*
X167273331Y-117440500D01*
X167273347Y-117440501D01*
X167280943Y-117440501D01*
X167439054Y-117440501D01*
X167439057Y-117440501D01*
X167591785Y-117399577D01*
X167641904Y-117370639D01*
X167728716Y-117320520D01*
X167840520Y-117208716D01*
X167840520Y-117208714D01*
X168120520Y-116928716D01*
X168199577Y-116791785D01*
X168240501Y-116639057D01*
X168240501Y-116480942D01*
X168240501Y-116473347D01*
X168240500Y-116473329D01*
X168240500Y-101360446D01*
X168260185Y-101293407D01*
X168291609Y-101260132D01*
X168379728Y-101196111D01*
X168506111Y-101069728D01*
X168611167Y-100925132D01*
X168692309Y-100765881D01*
X168692310Y-100765878D01*
X168747539Y-100595901D01*
X168747539Y-100595900D01*
X168747540Y-100595897D01*
X168775500Y-100419366D01*
X168775500Y-100240634D01*
X169044500Y-100240634D01*
X169044500Y-100419365D01*
X169072460Y-100595898D01*
X169072460Y-100595901D01*
X169127689Y-100765878D01*
X169127691Y-100765881D01*
X169208833Y-100925132D01*
X169313889Y-101069728D01*
X169440272Y-101196111D01*
X169584868Y-101301167D01*
X169744119Y-101382309D01*
X169744121Y-101382310D01*
X169824265Y-101408350D01*
X169914103Y-101437540D01*
X170090634Y-101465500D01*
X170090635Y-101465500D01*
X170269365Y-101465500D01*
X170269366Y-101465500D01*
X170445897Y-101437540D01*
X170445900Y-101437539D01*
X170445901Y-101437539D01*
X170615878Y-101382310D01*
X170615878Y-101382309D01*
X170615881Y-101382309D01*
X170775132Y-101301167D01*
X170919728Y-101196111D01*
X171046111Y-101069728D01*
X171151167Y-100925132D01*
X171232309Y-100765881D01*
X171232310Y-100765878D01*
X171287539Y-100595901D01*
X171287539Y-100595900D01*
X171287540Y-100595897D01*
X171315500Y-100419366D01*
X171315500Y-100240634D01*
X171287540Y-100064103D01*
X171287539Y-100064099D01*
X171287539Y-100064098D01*
X171232310Y-99894121D01*
X171232308Y-99894118D01*
X171221469Y-99872844D01*
X171151167Y-99734868D01*
X171046111Y-99590272D01*
X170919728Y-99463889D01*
X170775132Y-99358833D01*
X170615881Y-99277691D01*
X170615878Y-99277689D01*
X170445899Y-99222460D01*
X170312937Y-99201401D01*
X170269366Y-99194500D01*
X170090634Y-99194500D01*
X170047063Y-99201401D01*
X169914101Y-99222460D01*
X169914098Y-99222460D01*
X169744121Y-99277689D01*
X169744118Y-99277691D01*
X169584867Y-99358833D01*
X169440270Y-99463890D01*
X169313890Y-99590270D01*
X169208833Y-99734867D01*
X169127691Y-99894118D01*
X169127689Y-99894121D01*
X169072460Y-100064098D01*
X169072460Y-100064101D01*
X169044500Y-100240634D01*
X168775500Y-100240634D01*
X168747540Y-100064103D01*
X168747539Y-100064099D01*
X168747539Y-100064098D01*
X168692310Y-99894121D01*
X168692308Y-99894118D01*
X168681469Y-99872844D01*
X168611167Y-99734868D01*
X168506111Y-99590272D01*
X168379728Y-99463889D01*
X168235132Y-99358833D01*
X168075881Y-99277691D01*
X168075878Y-99277689D01*
X167905899Y-99222460D01*
X167772937Y-99201401D01*
X167729366Y-99194500D01*
X167550634Y-99194500D01*
X167507063Y-99201401D01*
X167374101Y-99222460D01*
X167374098Y-99222460D01*
X167204121Y-99277689D01*
X167204118Y-99277691D01*
X167044867Y-99358833D01*
X166900270Y-99463890D01*
X166773890Y-99590270D01*
X166668833Y-99734867D01*
X166587691Y-99894118D01*
X166587689Y-99894121D01*
X166532460Y-100064098D01*
X166532460Y-100064101D01*
X166504500Y-100240634D01*
X166504500Y-100419365D01*
X166532460Y-100595898D01*
X166532460Y-100595901D01*
X166587689Y-100765878D01*
X166587691Y-100765881D01*
X166668833Y-100925132D01*
X166773889Y-101069728D01*
X166900272Y-101196111D01*
X166988388Y-101260131D01*
X167031051Y-101315457D01*
X167039500Y-101360446D01*
X167039500Y-116115500D01*
X167019815Y-116182539D01*
X166967011Y-116228294D01*
X166915500Y-116239500D01*
X137884500Y-116239500D01*
X137817461Y-116219815D01*
X137771706Y-116167011D01*
X137760500Y-116115500D01*
X137760500Y-115330446D01*
X137761036Y-115328617D01*
X137760554Y-115326772D01*
X137770842Y-115295222D01*
X137780185Y-115263407D01*
X137781813Y-115261583D01*
X137782217Y-115260345D01*
X137790739Y-115251585D01*
X137806110Y-115234368D01*
X137808790Y-115232180D01*
X137899728Y-115166111D01*
X138026111Y-115039728D01*
X138131167Y-114895132D01*
X138212309Y-114735881D01*
X138223967Y-114700000D01*
X138267539Y-114565901D01*
X138267539Y-114565900D01*
X138267540Y-114565897D01*
X138295500Y-114389366D01*
X138295500Y-114210668D01*
X138565000Y-114210668D01*
X138565000Y-114389331D01*
X138592946Y-114565780D01*
X138648155Y-114735693D01*
X138729260Y-114894869D01*
X138738651Y-114907793D01*
X138738652Y-114907794D01*
X139300000Y-114346446D01*
X139300000Y-114352661D01*
X139327259Y-114454394D01*
X139379920Y-114545606D01*
X139454394Y-114620080D01*
X139545606Y-114672741D01*
X139647339Y-114700000D01*
X139653554Y-114700000D01*
X139092205Y-115261347D01*
X139092205Y-115261348D01*
X139105129Y-115270738D01*
X139264306Y-115351844D01*
X139434219Y-115407053D01*
X139610669Y-115435000D01*
X139789331Y-115435000D01*
X139965780Y-115407053D01*
X140135693Y-115351844D01*
X140294867Y-115270739D01*
X140294872Y-115270737D01*
X140307794Y-115261347D01*
X139746447Y-114700000D01*
X139752661Y-114700000D01*
X139854394Y-114672741D01*
X139945606Y-114620080D01*
X140020080Y-114545606D01*
X140072741Y-114454394D01*
X140100000Y-114352661D01*
X140100000Y-114346446D01*
X140661348Y-114907794D01*
X140670737Y-114894872D01*
X140670739Y-114894867D01*
X140751844Y-114735693D01*
X140807053Y-114565780D01*
X140835000Y-114389331D01*
X140835000Y-114210668D01*
X140807053Y-114034219D01*
X140751844Y-113864306D01*
X140670738Y-113705129D01*
X140661347Y-113692205D01*
X140100000Y-114253552D01*
X140100000Y-114247339D01*
X140072741Y-114145606D01*
X140020080Y-114054394D01*
X139945606Y-113979920D01*
X139854394Y-113927259D01*
X139752661Y-113900000D01*
X139746447Y-113900000D01*
X140307794Y-113338652D01*
X140307793Y-113338651D01*
X140294869Y-113329260D01*
X140135693Y-113248155D01*
X139965780Y-113192946D01*
X139789331Y-113165000D01*
X139610669Y-113165000D01*
X139434219Y-113192946D01*
X139264306Y-113248155D01*
X139105127Y-113329262D01*
X139092205Y-113338651D01*
X139092204Y-113338651D01*
X139653554Y-113900000D01*
X139647339Y-113900000D01*
X139545606Y-113927259D01*
X139454394Y-113979920D01*
X139379920Y-114054394D01*
X139327259Y-114145606D01*
X139300000Y-114247339D01*
X139300000Y-114253553D01*
X138738651Y-113692204D01*
X138738651Y-113692205D01*
X138729262Y-113705127D01*
X138648155Y-113864306D01*
X138592946Y-114034219D01*
X138565000Y-114210668D01*
X138295500Y-114210668D01*
X138295500Y-114210634D01*
X138267540Y-114034103D01*
X138267539Y-114034099D01*
X138267539Y-114034098D01*
X138212310Y-113864121D01*
X138212308Y-113864118D01*
X138131300Y-113705129D01*
X138131167Y-113704868D01*
X138026111Y-113560272D01*
X137899728Y-113433889D01*
X137755132Y-113328833D01*
X137595881Y-113247691D01*
X137595878Y-113247689D01*
X137425899Y-113192460D01*
X137289824Y-113170908D01*
X137249366Y-113164500D01*
X137070634Y-113164500D01*
X137030176Y-113170908D01*
X136894101Y-113192460D01*
X136894098Y-113192460D01*
X136724121Y-113247689D01*
X136724118Y-113247691D01*
X136564867Y-113328833D01*
X136420270Y-113433890D01*
X136293890Y-113560270D01*
X136188833Y-113704867D01*
X136107691Y-113864118D01*
X136107689Y-113864121D01*
X136052460Y-114034098D01*
X136052460Y-114034101D01*
X136024500Y-114210634D01*
X136024500Y-114389365D01*
X136052460Y-114565898D01*
X136052460Y-114565901D01*
X136107689Y-114735878D01*
X136107691Y-114735881D01*
X136188833Y-114895132D01*
X136293889Y-115039728D01*
X136420272Y-115166111D01*
X136508388Y-115230131D01*
X136551051Y-115285457D01*
X136559500Y-115330446D01*
X136559500Y-116115500D01*
X136539815Y-116182539D01*
X136487011Y-116228294D01*
X136435500Y-116239500D01*
X126760448Y-116239500D01*
X126693409Y-116219815D01*
X126660130Y-116188386D01*
X126644600Y-116167011D01*
X126596111Y-116100272D01*
X126469728Y-115973889D01*
X126325132Y-115868833D01*
X126165881Y-115787691D01*
X126165878Y-115787689D01*
X125995899Y-115732460D01*
X125878209Y-115713820D01*
X125819366Y-115704500D01*
X125640634Y-115704500D01*
X125581790Y-115713820D01*
X125464101Y-115732460D01*
X125464098Y-115732460D01*
X125294121Y-115787689D01*
X125294118Y-115787691D01*
X125134867Y-115868833D01*
X124990270Y-115973890D01*
X124863890Y-116100270D01*
X124758833Y-116244867D01*
X124677691Y-116404118D01*
X124677689Y-116404121D01*
X124622460Y-116574098D01*
X124622460Y-116574101D01*
X124594500Y-116750634D01*
X106348599Y-116750634D01*
X108888600Y-114210634D01*
X124594500Y-114210634D01*
X124594500Y-114389365D01*
X124622460Y-114565898D01*
X124622460Y-114565901D01*
X124677689Y-114735878D01*
X124677691Y-114735881D01*
X124758833Y-114895132D01*
X124863889Y-115039728D01*
X124990272Y-115166111D01*
X125134868Y-115271167D01*
X125294119Y-115352309D01*
X125294121Y-115352310D01*
X125452670Y-115403825D01*
X125464103Y-115407540D01*
X125640634Y-115435500D01*
X125640635Y-115435500D01*
X125819365Y-115435500D01*
X125819366Y-115435500D01*
X125995897Y-115407540D01*
X125995900Y-115407539D01*
X125995901Y-115407539D01*
X126165878Y-115352310D01*
X126165878Y-115352309D01*
X126165881Y-115352309D01*
X126325132Y-115271167D01*
X126469728Y-115166111D01*
X126596111Y-115039728D01*
X126701167Y-114895132D01*
X126782309Y-114735881D01*
X126793967Y-114700000D01*
X126837539Y-114565901D01*
X126837539Y-114565900D01*
X126837540Y-114565897D01*
X126865500Y-114389366D01*
X126865500Y-114210634D01*
X126837540Y-114034103D01*
X126837539Y-114034099D01*
X126837539Y-114034098D01*
X126782310Y-113864121D01*
X126782308Y-113864118D01*
X126701300Y-113705129D01*
X126701167Y-113704868D01*
X126596111Y-113560272D01*
X126469728Y-113433889D01*
X126325132Y-113328833D01*
X126165881Y-113247691D01*
X126165878Y-113247689D01*
X125995899Y-113192460D01*
X125859824Y-113170908D01*
X125819366Y-113164500D01*
X125640634Y-113164500D01*
X125600176Y-113170908D01*
X125464101Y-113192460D01*
X125464098Y-113192460D01*
X125294121Y-113247689D01*
X125294118Y-113247691D01*
X125134867Y-113328833D01*
X124990270Y-113433890D01*
X124863890Y-113560270D01*
X124758833Y-113704867D01*
X124677691Y-113864118D01*
X124677689Y-113864121D01*
X124622460Y-114034098D01*
X124622460Y-114034101D01*
X124594500Y-114210634D01*
X108888600Y-114210634D01*
X111428600Y-111670634D01*
X124594500Y-111670634D01*
X124594500Y-111849365D01*
X124622460Y-112025898D01*
X124622460Y-112025901D01*
X124677689Y-112195878D01*
X124677691Y-112195881D01*
X124758833Y-112355132D01*
X124863889Y-112499728D01*
X124990272Y-112626111D01*
X125134868Y-112731167D01*
X125294119Y-112812309D01*
X125294121Y-112812310D01*
X125452670Y-112863825D01*
X125464103Y-112867540D01*
X125640634Y-112895500D01*
X125640635Y-112895500D01*
X125819365Y-112895500D01*
X125819366Y-112895500D01*
X125995897Y-112867540D01*
X125995900Y-112867539D01*
X125995901Y-112867539D01*
X126165878Y-112812310D01*
X126165878Y-112812309D01*
X126165881Y-112812309D01*
X126325132Y-112731167D01*
X126469728Y-112626111D01*
X126596111Y-112499728D01*
X126701167Y-112355132D01*
X126782309Y-112195881D01*
X126837540Y-112025897D01*
X126865500Y-111849366D01*
X126865500Y-111670634D01*
X126837540Y-111494103D01*
X126837539Y-111494099D01*
X126837539Y-111494098D01*
X126782310Y-111324121D01*
X126782308Y-111324118D01*
X126770275Y-111300500D01*
X126701167Y-111164868D01*
X126596111Y-111020272D01*
X126469728Y-110893889D01*
X126325132Y-110788833D01*
X126165881Y-110707691D01*
X126165878Y-110707689D01*
X125995899Y-110652460D01*
X125878209Y-110633820D01*
X125819366Y-110624500D01*
X125640634Y-110624500D01*
X125581790Y-110633820D01*
X125464101Y-110652460D01*
X125464098Y-110652460D01*
X125294121Y-110707689D01*
X125294118Y-110707691D01*
X125134867Y-110788833D01*
X124990270Y-110893890D01*
X124863890Y-111020270D01*
X124758833Y-111164867D01*
X124677691Y-111324118D01*
X124677689Y-111324121D01*
X124622460Y-111494098D01*
X124622460Y-111494101D01*
X124594500Y-111670634D01*
X111428600Y-111670634D01*
X113968600Y-109130634D01*
X124594500Y-109130634D01*
X124594500Y-109309365D01*
X124622460Y-109485898D01*
X124622460Y-109485901D01*
X124677689Y-109655878D01*
X124677691Y-109655881D01*
X124758833Y-109815132D01*
X124863889Y-109959728D01*
X124990272Y-110086111D01*
X125134868Y-110191167D01*
X125294119Y-110272309D01*
X125294121Y-110272310D01*
X125452670Y-110323825D01*
X125464103Y-110327540D01*
X125640634Y-110355500D01*
X125640635Y-110355500D01*
X125819365Y-110355500D01*
X125819366Y-110355500D01*
X125995897Y-110327540D01*
X125995900Y-110327539D01*
X125995901Y-110327539D01*
X126165878Y-110272310D01*
X126165878Y-110272309D01*
X126165881Y-110272309D01*
X126325132Y-110191167D01*
X126469728Y-110086111D01*
X126596111Y-109959728D01*
X126701167Y-109815132D01*
X126782309Y-109655881D01*
X126837540Y-109485897D01*
X126865500Y-109309366D01*
X126865500Y-109130634D01*
X126837540Y-108954103D01*
X126837539Y-108954099D01*
X126837539Y-108954098D01*
X126782310Y-108784121D01*
X126782308Y-108784118D01*
X126701166Y-108624867D01*
X126596111Y-108480272D01*
X126469728Y-108353889D01*
X126325132Y-108248833D01*
X126165881Y-108167691D01*
X126165878Y-108167689D01*
X125995899Y-108112460D01*
X125878209Y-108093820D01*
X125819366Y-108084500D01*
X125640634Y-108084500D01*
X125581790Y-108093820D01*
X125464101Y-108112460D01*
X125464098Y-108112460D01*
X125294121Y-108167689D01*
X125294118Y-108167691D01*
X125134867Y-108248833D01*
X124990270Y-108353890D01*
X124863890Y-108480270D01*
X124758833Y-108624867D01*
X124677691Y-108784118D01*
X124677689Y-108784121D01*
X124622460Y-108954098D01*
X124622460Y-108954101D01*
X124594500Y-109130634D01*
X113968600Y-109130634D01*
X115458506Y-107640728D01*
X115458511Y-107640724D01*
X115468714Y-107630520D01*
X115468716Y-107630520D01*
X115580520Y-107518716D01*
X115637670Y-107419728D01*
X115659577Y-107381785D01*
X115700500Y-107229058D01*
X115700500Y-107070943D01*
X115700500Y-106590634D01*
X124594500Y-106590634D01*
X124594500Y-106769365D01*
X124622460Y-106945898D01*
X124622460Y-106945901D01*
X124677689Y-107115878D01*
X124677691Y-107115881D01*
X124758833Y-107275132D01*
X124863889Y-107419728D01*
X124990272Y-107546111D01*
X125134868Y-107651167D01*
X125294119Y-107732309D01*
X125294121Y-107732310D01*
X125443172Y-107780739D01*
X125464103Y-107787540D01*
X125640634Y-107815500D01*
X125640635Y-107815500D01*
X125819365Y-107815500D01*
X125819366Y-107815500D01*
X125995897Y-107787540D01*
X125995900Y-107787539D01*
X125995901Y-107787539D01*
X126165878Y-107732310D01*
X126165878Y-107732309D01*
X126165881Y-107732309D01*
X126325132Y-107651167D01*
X126469728Y-107546111D01*
X126596111Y-107419728D01*
X126701167Y-107275132D01*
X126782309Y-107115881D01*
X126796910Y-107070943D01*
X126837539Y-106945901D01*
X126837539Y-106945900D01*
X126837540Y-106945897D01*
X126865500Y-106769366D01*
X126865500Y-106590634D01*
X126837540Y-106414103D01*
X126837539Y-106414099D01*
X126837539Y-106414098D01*
X126782310Y-106244121D01*
X126782308Y-106244118D01*
X126767537Y-106215127D01*
X126701167Y-106084868D01*
X126596111Y-105940272D01*
X126469728Y-105813889D01*
X126325132Y-105708833D01*
X126165881Y-105627691D01*
X126165878Y-105627689D01*
X125995899Y-105572460D01*
X125877111Y-105553646D01*
X125819366Y-105544500D01*
X125640634Y-105544500D01*
X125582889Y-105553646D01*
X125464101Y-105572460D01*
X125464098Y-105572460D01*
X125294121Y-105627689D01*
X125294118Y-105627691D01*
X125134867Y-105708833D01*
X124990270Y-105813890D01*
X124863890Y-105940270D01*
X124758833Y-106084867D01*
X124677691Y-106244118D01*
X124677689Y-106244121D01*
X124622460Y-106414098D01*
X124622460Y-106414101D01*
X124594500Y-106590634D01*
X115700500Y-106590634D01*
X115700500Y-104050634D01*
X124594500Y-104050634D01*
X124594500Y-104229365D01*
X124622460Y-104405898D01*
X124622460Y-104405901D01*
X124677689Y-104575878D01*
X124677691Y-104575881D01*
X124758833Y-104735132D01*
X124863889Y-104879728D01*
X124990272Y-105006111D01*
X125134868Y-105111167D01*
X125294119Y-105192309D01*
X125294121Y-105192310D01*
X125452670Y-105243825D01*
X125464103Y-105247540D01*
X125640634Y-105275500D01*
X125640635Y-105275500D01*
X125819365Y-105275500D01*
X125819366Y-105275500D01*
X125995897Y-105247540D01*
X125995900Y-105247539D01*
X125995901Y-105247539D01*
X126165878Y-105192310D01*
X126165878Y-105192309D01*
X126165881Y-105192309D01*
X126325132Y-105111167D01*
X126469728Y-105006111D01*
X126596111Y-104879728D01*
X126701167Y-104735132D01*
X126782309Y-104575881D01*
X126837540Y-104405897D01*
X126865500Y-104229366D01*
X126865500Y-104050634D01*
X126837540Y-103874103D01*
X126837539Y-103874099D01*
X126837539Y-103874098D01*
X126782310Y-103704121D01*
X126782308Y-103704118D01*
X126701166Y-103544867D01*
X126596111Y-103400272D01*
X126469728Y-103273889D01*
X126325132Y-103168833D01*
X126165881Y-103087691D01*
X126165878Y-103087689D01*
X125995899Y-103032460D01*
X125878209Y-103013820D01*
X125819366Y-103004500D01*
X125640634Y-103004500D01*
X125581790Y-103013820D01*
X125464101Y-103032460D01*
X125464098Y-103032460D01*
X125294121Y-103087689D01*
X125294118Y-103087691D01*
X125134867Y-103168833D01*
X124990270Y-103273890D01*
X124863890Y-103400270D01*
X124758833Y-103544867D01*
X124677691Y-103704118D01*
X124677689Y-103704121D01*
X124622460Y-103874098D01*
X124622460Y-103874101D01*
X124594500Y-104050634D01*
X115700500Y-104050634D01*
X115700500Y-101510634D01*
X124594500Y-101510634D01*
X124594500Y-101689365D01*
X124622460Y-101865898D01*
X124622460Y-101865901D01*
X124677689Y-102035877D01*
X124677690Y-102035880D01*
X124677691Y-102035881D01*
X124758833Y-102195132D01*
X124863889Y-102339728D01*
X124990272Y-102466111D01*
X125134868Y-102571167D01*
X125294119Y-102652309D01*
X125294121Y-102652310D01*
X125452670Y-102703825D01*
X125464103Y-102707540D01*
X125640634Y-102735500D01*
X125640635Y-102735500D01*
X125819365Y-102735500D01*
X125819366Y-102735500D01*
X125995897Y-102707540D01*
X125995900Y-102707539D01*
X125995901Y-102707539D01*
X126165878Y-102652310D01*
X126165878Y-102652309D01*
X126165881Y-102652309D01*
X126325132Y-102571167D01*
X126469728Y-102466111D01*
X126596111Y-102339728D01*
X126701167Y-102195132D01*
X126782309Y-102035881D01*
X126782309Y-102035880D01*
X126782311Y-102035877D01*
X126837539Y-101865901D01*
X126837539Y-101865900D01*
X126837540Y-101865897D01*
X126865500Y-101689366D01*
X126865500Y-101510634D01*
X126837540Y-101334103D01*
X126837539Y-101334099D01*
X126837539Y-101334098D01*
X126782310Y-101164121D01*
X126782308Y-101164118D01*
X126735562Y-101072372D01*
X126701167Y-101004868D01*
X126596111Y-100860272D01*
X126469728Y-100733889D01*
X126325132Y-100628833D01*
X126165881Y-100547691D01*
X126165878Y-100547689D01*
X125995899Y-100492460D01*
X125878209Y-100473820D01*
X125819366Y-100464500D01*
X125640634Y-100464500D01*
X125581790Y-100473820D01*
X125464101Y-100492460D01*
X125464098Y-100492460D01*
X125294121Y-100547689D01*
X125294118Y-100547691D01*
X125134867Y-100628833D01*
X124990270Y-100733890D01*
X124863890Y-100860270D01*
X124758833Y-101004867D01*
X124677691Y-101164118D01*
X124677689Y-101164121D01*
X124622460Y-101334098D01*
X124622460Y-101334101D01*
X124594500Y-101510634D01*
X115700500Y-101510634D01*
X115700500Y-96430634D01*
X124594500Y-96430634D01*
X124594500Y-96609365D01*
X124622460Y-96785898D01*
X124622460Y-96785901D01*
X124677689Y-96955878D01*
X124677691Y-96955881D01*
X124758833Y-97115132D01*
X124863889Y-97259728D01*
X124990272Y-97386111D01*
X125134868Y-97491167D01*
X125294119Y-97572309D01*
X125294121Y-97572310D01*
X125452670Y-97623825D01*
X125464103Y-97627540D01*
X125640634Y-97655500D01*
X125640635Y-97655500D01*
X125819364Y-97655500D01*
X125819366Y-97655500D01*
X125926941Y-97638461D01*
X125996232Y-97647415D01*
X126034018Y-97673253D01*
X126103088Y-97742323D01*
X126136573Y-97803646D01*
X126131589Y-97873338D01*
X126089717Y-97929271D01*
X126024253Y-97953688D01*
X125996010Y-97952477D01*
X125819366Y-97924500D01*
X125640634Y-97924500D01*
X125581790Y-97933820D01*
X125464101Y-97952460D01*
X125464098Y-97952460D01*
X125294121Y-98007689D01*
X125294118Y-98007691D01*
X125134867Y-98088833D01*
X124990270Y-98193890D01*
X124863890Y-98320270D01*
X124758833Y-98464867D01*
X124677691Y-98624118D01*
X124677689Y-98624121D01*
X124622460Y-98794098D01*
X124622460Y-98794101D01*
X124594500Y-98970634D01*
X124594500Y-99149365D01*
X124622460Y-99325898D01*
X124622460Y-99325901D01*
X124677689Y-99495878D01*
X124677691Y-99495881D01*
X124758833Y-99655132D01*
X124863889Y-99799728D01*
X124990272Y-99926111D01*
X125134868Y-100031167D01*
X125294119Y-100112309D01*
X125294121Y-100112310D01*
X125399967Y-100146701D01*
X125464103Y-100167540D01*
X125640634Y-100195500D01*
X125640635Y-100195500D01*
X125819365Y-100195500D01*
X125819366Y-100195500D01*
X125995897Y-100167540D01*
X125995900Y-100167539D01*
X125995901Y-100167539D01*
X126165878Y-100112310D01*
X126165878Y-100112309D01*
X126165881Y-100112309D01*
X126325132Y-100031167D01*
X126469728Y-99926111D01*
X126596111Y-99799728D01*
X126701167Y-99655132D01*
X126782309Y-99495881D01*
X126782310Y-99495878D01*
X126837539Y-99325901D01*
X126837539Y-99325900D01*
X126837540Y-99325897D01*
X126865500Y-99149366D01*
X126865500Y-98970634D01*
X126837540Y-98794103D01*
X126837539Y-98794102D01*
X126837522Y-98793990D01*
X126846477Y-98724697D01*
X126891473Y-98671245D01*
X126958224Y-98650605D01*
X127025538Y-98669330D01*
X127047676Y-98686911D01*
X129363181Y-101002416D01*
X129396666Y-101063739D01*
X129399500Y-101090097D01*
X129399500Y-110679057D01*
X129428915Y-110788833D01*
X129440423Y-110831783D01*
X129440426Y-110831790D01*
X129519475Y-110968709D01*
X129519479Y-110968714D01*
X129519480Y-110968716D01*
X129631284Y-111080520D01*
X129631286Y-111080521D01*
X129631290Y-111080524D01*
X129768209Y-111159573D01*
X129768216Y-111159577D01*
X129920943Y-111200500D01*
X130079057Y-111200500D01*
X133895500Y-111200500D01*
X133962539Y-111220185D01*
X134008294Y-111272989D01*
X134019500Y-111324500D01*
X134019500Y-113044261D01*
X133999815Y-113111300D01*
X133947011Y-113157055D01*
X133908754Y-113167551D01*
X133877516Y-113170909D01*
X133742671Y-113221202D01*
X133742664Y-113221206D01*
X133627455Y-113307452D01*
X133627452Y-113307455D01*
X133541206Y-113422664D01*
X133541202Y-113422671D01*
X133490908Y-113557517D01*
X133486395Y-113599500D01*
X133484501Y-113617123D01*
X133484500Y-113617135D01*
X133484500Y-114982870D01*
X133484501Y-114982876D01*
X133490908Y-115042483D01*
X133541202Y-115177328D01*
X133541206Y-115177335D01*
X133627452Y-115292544D01*
X133627455Y-115292547D01*
X133742664Y-115378793D01*
X133742671Y-115378797D01*
X133877517Y-115429091D01*
X133877516Y-115429091D01*
X133884444Y-115429835D01*
X133937127Y-115435500D01*
X135302872Y-115435499D01*
X135362483Y-115429091D01*
X135497331Y-115378796D01*
X135612546Y-115292546D01*
X135698796Y-115177331D01*
X135749091Y-115042483D01*
X135755500Y-114982873D01*
X135755499Y-113617128D01*
X135749091Y-113557517D01*
X135698796Y-113422669D01*
X135698795Y-113422668D01*
X135698793Y-113422664D01*
X135612547Y-113307455D01*
X135612544Y-113307452D01*
X135497335Y-113221206D01*
X135497328Y-113221202D01*
X135362482Y-113170908D01*
X135362484Y-113170908D01*
X135331244Y-113167550D01*
X135266693Y-113140812D01*
X135226845Y-113083419D01*
X135220500Y-113044261D01*
X135220500Y-111324500D01*
X135240185Y-111257461D01*
X135292989Y-111211706D01*
X135344500Y-111200500D01*
X161074684Y-111200500D01*
X161122136Y-111209939D01*
X161236866Y-111257461D01*
X161266503Y-111269737D01*
X161421153Y-111300499D01*
X161421156Y-111300500D01*
X161421158Y-111300500D01*
X161578844Y-111300500D01*
X161578845Y-111300499D01*
X161733497Y-111269737D01*
X161879179Y-111209394D01*
X162010289Y-111121789D01*
X162121789Y-111010289D01*
X162209394Y-110879179D01*
X162269737Y-110733497D01*
X162300500Y-110578842D01*
X162300500Y-110421158D01*
X162300500Y-110421155D01*
X162300499Y-110421153D01*
X162270892Y-110272309D01*
X162269737Y-110266503D01*
X162238532Y-110191166D01*
X162209397Y-110120827D01*
X162209390Y-110120814D01*
X162121789Y-109989711D01*
X162121786Y-109989707D01*
X162010292Y-109878213D01*
X162010288Y-109878210D01*
X161879185Y-109790609D01*
X161879172Y-109790602D01*
X161733501Y-109730264D01*
X161733489Y-109730261D01*
X161578845Y-109699500D01*
X161578842Y-109699500D01*
X161421158Y-109699500D01*
X161421155Y-109699500D01*
X161266510Y-109730261D01*
X161266498Y-109730264D01*
X161120827Y-109790602D01*
X161120814Y-109790609D01*
X160989712Y-109878209D01*
X160947227Y-109920695D01*
X160904739Y-109963182D01*
X160843419Y-109996666D01*
X160817060Y-109999500D01*
X134686669Y-109999500D01*
X134686653Y-109999499D01*
X134679057Y-109999499D01*
X134520943Y-109999499D01*
X134513347Y-109999499D01*
X134513331Y-109999500D01*
X130724500Y-109999500D01*
X130657461Y-109979815D01*
X130611706Y-109927011D01*
X130600500Y-109875500D01*
X130600500Y-100879059D01*
X130600501Y-100879046D01*
X130600501Y-100710945D01*
X130600501Y-100710943D01*
X130559577Y-100558215D01*
X130521613Y-100492460D01*
X130480520Y-100421284D01*
X130368716Y-100309480D01*
X130368715Y-100309479D01*
X130364385Y-100305149D01*
X130364374Y-100305139D01*
X126883253Y-96824018D01*
X126849768Y-96762695D01*
X126848461Y-96716943D01*
X126865500Y-96609366D01*
X126865500Y-96430634D01*
X126837540Y-96254103D01*
X126837539Y-96254099D01*
X126837539Y-96254098D01*
X126782310Y-96084121D01*
X126782308Y-96084118D01*
X126774189Y-96068182D01*
X126701167Y-95924868D01*
X126596111Y-95780272D01*
X126469728Y-95653889D01*
X126325132Y-95548833D01*
X126165881Y-95467691D01*
X126165878Y-95467689D01*
X125995899Y-95412460D01*
X125878209Y-95393820D01*
X125819366Y-95384500D01*
X125640634Y-95384500D01*
X125581790Y-95393820D01*
X125464101Y-95412460D01*
X125464098Y-95412460D01*
X125294121Y-95467689D01*
X125294118Y-95467691D01*
X125134867Y-95548833D01*
X124990270Y-95653890D01*
X124863890Y-95780270D01*
X124758833Y-95924867D01*
X124677691Y-96084118D01*
X124677689Y-96084121D01*
X124622460Y-96254098D01*
X124622460Y-96254101D01*
X124594500Y-96430634D01*
X115700500Y-96430634D01*
X115700500Y-91350634D01*
X124594500Y-91350634D01*
X124594500Y-91529365D01*
X124622460Y-91705898D01*
X124622460Y-91705901D01*
X124677689Y-91875878D01*
X124677691Y-91875881D01*
X124758833Y-92035132D01*
X124863889Y-92179728D01*
X124990272Y-92306111D01*
X125134868Y-92411167D01*
X125294119Y-92492309D01*
X125294121Y-92492310D01*
X125452670Y-92543825D01*
X125464103Y-92547540D01*
X125640634Y-92575500D01*
X125640635Y-92575500D01*
X125819365Y-92575500D01*
X125819366Y-92575500D01*
X125995897Y-92547540D01*
X125995900Y-92547539D01*
X125995901Y-92547539D01*
X126165878Y-92492310D01*
X126165878Y-92492309D01*
X126165881Y-92492309D01*
X126325132Y-92411167D01*
X126469728Y-92306111D01*
X126596111Y-92179728D01*
X126660130Y-92091613D01*
X126715461Y-92048948D01*
X126760448Y-92040500D01*
X126769903Y-92040500D01*
X126836942Y-92060185D01*
X126857584Y-92076819D01*
X140273088Y-105492323D01*
X140306573Y-105553646D01*
X140301589Y-105623338D01*
X140259717Y-105679271D01*
X140194253Y-105703688D01*
X140166010Y-105702477D01*
X139989366Y-105674500D01*
X139810634Y-105674500D01*
X139810628Y-105674500D01*
X139703058Y-105691537D01*
X139633765Y-105682582D01*
X139595980Y-105656745D01*
X127557590Y-93618355D01*
X127557588Y-93618352D01*
X127438717Y-93499481D01*
X127438716Y-93499480D01*
X127351904Y-93449360D01*
X127351904Y-93449359D01*
X127351900Y-93449358D01*
X127301785Y-93420423D01*
X127149057Y-93379499D01*
X126990943Y-93379499D01*
X126983347Y-93379499D01*
X126983331Y-93379500D01*
X126760448Y-93379500D01*
X126693409Y-93359815D01*
X126660130Y-93328386D01*
X126596111Y-93240272D01*
X126469728Y-93113889D01*
X126325132Y-93008833D01*
X126165881Y-92927691D01*
X126165878Y-92927689D01*
X125995899Y-92872460D01*
X125878209Y-92853820D01*
X125819366Y-92844500D01*
X125640634Y-92844500D01*
X125581790Y-92853820D01*
X125464101Y-92872460D01*
X125464098Y-92872460D01*
X125294121Y-92927689D01*
X125294118Y-92927691D01*
X125134867Y-93008833D01*
X124990270Y-93113890D01*
X124863890Y-93240270D01*
X124758833Y-93384867D01*
X124677691Y-93544118D01*
X124677689Y-93544121D01*
X124622460Y-93714098D01*
X124622460Y-93714101D01*
X124594500Y-93890634D01*
X124594500Y-94069365D01*
X124622460Y-94245898D01*
X124622460Y-94245901D01*
X124677689Y-94415878D01*
X124677691Y-94415881D01*
X124758833Y-94575132D01*
X124863889Y-94719728D01*
X124990272Y-94846111D01*
X125134868Y-94951167D01*
X125294119Y-95032309D01*
X125294121Y-95032310D01*
X125452670Y-95083825D01*
X125464103Y-95087540D01*
X125640634Y-95115500D01*
X125640635Y-95115500D01*
X125819365Y-95115500D01*
X125819366Y-95115500D01*
X125995897Y-95087540D01*
X125995900Y-95087539D01*
X125995901Y-95087539D01*
X126165878Y-95032310D01*
X126165878Y-95032309D01*
X126165881Y-95032309D01*
X126325132Y-94951167D01*
X126469728Y-94846111D01*
X126596111Y-94719728D01*
X126660130Y-94631613D01*
X126715461Y-94588948D01*
X126760448Y-94580500D01*
X126769903Y-94580500D01*
X126836942Y-94600185D01*
X126857584Y-94616819D01*
X137733689Y-105492924D01*
X137767174Y-105554247D01*
X137762190Y-105623939D01*
X137720318Y-105679872D01*
X137654854Y-105704289D01*
X137626610Y-105703078D01*
X137449331Y-105675000D01*
X137270669Y-105675000D01*
X137094219Y-105702946D01*
X136924306Y-105758155D01*
X136765127Y-105839262D01*
X136752205Y-105848651D01*
X136752204Y-105848651D01*
X137313554Y-106410000D01*
X137307339Y-106410000D01*
X137205606Y-106437259D01*
X137114394Y-106489920D01*
X137039920Y-106564394D01*
X136987259Y-106655606D01*
X136960000Y-106757339D01*
X136960000Y-106763553D01*
X136398651Y-106202204D01*
X136398651Y-106202205D01*
X136389262Y-106215127D01*
X136308155Y-106374306D01*
X136252946Y-106544219D01*
X136225000Y-106720668D01*
X136225000Y-106899331D01*
X136252946Y-107075780D01*
X136308155Y-107245693D01*
X136389260Y-107404869D01*
X136398651Y-107417793D01*
X136398652Y-107417794D01*
X136960000Y-106856446D01*
X136960000Y-106862661D01*
X136987259Y-106964394D01*
X137039920Y-107055606D01*
X137114394Y-107130080D01*
X137205606Y-107182741D01*
X137307339Y-107210000D01*
X137313554Y-107210000D01*
X136752205Y-107771347D01*
X136752205Y-107771348D01*
X136765129Y-107780738D01*
X136924306Y-107861844D01*
X137094219Y-107917053D01*
X137270669Y-107945000D01*
X137449331Y-107945000D01*
X137625780Y-107917053D01*
X137795693Y-107861844D01*
X137954867Y-107780739D01*
X137954872Y-107780737D01*
X137967794Y-107771347D01*
X137406447Y-107210000D01*
X137412661Y-107210000D01*
X137514394Y-107182741D01*
X137605606Y-107130080D01*
X137680080Y-107055606D01*
X137732741Y-106964394D01*
X137760000Y-106862661D01*
X137760000Y-106856446D01*
X138321348Y-107417794D01*
X138330737Y-107404872D01*
X138330739Y-107404867D01*
X138411844Y-107245693D01*
X138467053Y-107075780D01*
X138495000Y-106899331D01*
X138495000Y-106720668D01*
X138466921Y-106543389D01*
X138475875Y-106474096D01*
X138520871Y-106420644D01*
X138587623Y-106400004D01*
X138654937Y-106418729D01*
X138677075Y-106436310D01*
X138746745Y-106505980D01*
X138780230Y-106567303D01*
X138781537Y-106613058D01*
X138764500Y-106720628D01*
X138764500Y-106720634D01*
X138764500Y-106899366D01*
X138774800Y-106964394D01*
X138792460Y-107075898D01*
X138792460Y-107075901D01*
X138847689Y-107245878D01*
X138847691Y-107245881D01*
X138928833Y-107405132D01*
X139033889Y-107549728D01*
X139160272Y-107676111D01*
X139304868Y-107781167D01*
X139464119Y-107862309D01*
X139464121Y-107862310D01*
X139622670Y-107913825D01*
X139634103Y-107917540D01*
X139810634Y-107945500D01*
X139810635Y-107945500D01*
X139989365Y-107945500D01*
X139989366Y-107945500D01*
X140165897Y-107917540D01*
X140165900Y-107917539D01*
X140165901Y-107917539D01*
X140335878Y-107862310D01*
X140335878Y-107862309D01*
X140335881Y-107862309D01*
X140495132Y-107781167D01*
X140639728Y-107676111D01*
X140766111Y-107549728D01*
X140871167Y-107405132D01*
X140952309Y-107245881D01*
X140963967Y-107210000D01*
X141007539Y-107075901D01*
X141007539Y-107075900D01*
X141007540Y-107075897D01*
X141035500Y-106899366D01*
X141035500Y-106720634D01*
X141007540Y-106544103D01*
X141007539Y-106544102D01*
X141007522Y-106543990D01*
X141016477Y-106474697D01*
X141061473Y-106421245D01*
X141128224Y-106400605D01*
X141195538Y-106419330D01*
X141217676Y-106436911D01*
X141286745Y-106505980D01*
X141320230Y-106567303D01*
X141321537Y-106613058D01*
X141304500Y-106720628D01*
X141304500Y-106720634D01*
X141304500Y-106899366D01*
X141314800Y-106964394D01*
X141332460Y-107075898D01*
X141332460Y-107075901D01*
X141387689Y-107245878D01*
X141387691Y-107245881D01*
X141468833Y-107405132D01*
X141573889Y-107549728D01*
X141700272Y-107676111D01*
X141844868Y-107781167D01*
X142004119Y-107862309D01*
X142004121Y-107862310D01*
X142162670Y-107913825D01*
X142174103Y-107917540D01*
X142350634Y-107945500D01*
X142350635Y-107945500D01*
X142529365Y-107945500D01*
X142529366Y-107945500D01*
X142705897Y-107917540D01*
X142705900Y-107917539D01*
X142705901Y-107917539D01*
X142875878Y-107862310D01*
X142875878Y-107862309D01*
X142875881Y-107862309D01*
X143035132Y-107781167D01*
X143179728Y-107676111D01*
X143306111Y-107549728D01*
X143411167Y-107405132D01*
X143492309Y-107245881D01*
X143503967Y-107210000D01*
X143547539Y-107075901D01*
X143547539Y-107075900D01*
X143547540Y-107075897D01*
X143575500Y-106899366D01*
X143575500Y-106720634D01*
X143547540Y-106544103D01*
X143547539Y-106544099D01*
X143547539Y-106544098D01*
X143492310Y-106374121D01*
X143492308Y-106374118D01*
X143426071Y-106244118D01*
X143411167Y-106214868D01*
X143306111Y-106070272D01*
X143179728Y-105943889D01*
X143035132Y-105838833D01*
X142875881Y-105757691D01*
X142875878Y-105757689D01*
X142705899Y-105702460D01*
X142563283Y-105679872D01*
X142529366Y-105674500D01*
X142350634Y-105674500D01*
X142350628Y-105674500D01*
X142243058Y-105691537D01*
X142173765Y-105682582D01*
X142135980Y-105656745D01*
X137015916Y-100536681D01*
X136982431Y-100475358D01*
X136987415Y-100405666D01*
X137029287Y-100349733D01*
X137094751Y-100325316D01*
X137103597Y-100325000D01*
X137110000Y-100325000D01*
X137110000Y-99505686D01*
X137114394Y-99510080D01*
X137205606Y-99562741D01*
X137307339Y-99590000D01*
X137412661Y-99590000D01*
X137514394Y-99562741D01*
X137605606Y-99510080D01*
X137610000Y-99505686D01*
X137610000Y-100325000D01*
X138042828Y-100325000D01*
X138042844Y-100324999D01*
X138102372Y-100318598D01*
X138102379Y-100318596D01*
X138237086Y-100268354D01*
X138237093Y-100268350D01*
X138352187Y-100182190D01*
X138352190Y-100182187D01*
X138438350Y-100067093D01*
X138438354Y-100067086D01*
X138488596Y-99932379D01*
X138488598Y-99932372D01*
X138494999Y-99872844D01*
X138495000Y-99872827D01*
X138495000Y-99440000D01*
X137675686Y-99440000D01*
X137680080Y-99435606D01*
X137732741Y-99344394D01*
X137760000Y-99242661D01*
X137760000Y-99137339D01*
X137732741Y-99035606D01*
X137680080Y-98944394D01*
X137675686Y-98940000D01*
X138495000Y-98940000D01*
X138495000Y-98507172D01*
X138494999Y-98507155D01*
X138488598Y-98447627D01*
X138488596Y-98447620D01*
X138438354Y-98312913D01*
X138438350Y-98312906D01*
X138352190Y-98197812D01*
X138352187Y-98197809D01*
X138237093Y-98111649D01*
X138237086Y-98111645D01*
X138102379Y-98061403D01*
X138102372Y-98061401D01*
X138042844Y-98055000D01*
X137610000Y-98055000D01*
X137610000Y-98874314D01*
X137605606Y-98869920D01*
X137514394Y-98817259D01*
X137412661Y-98790000D01*
X137307339Y-98790000D01*
X137205606Y-98817259D01*
X137114394Y-98869920D01*
X137110000Y-98874314D01*
X137110000Y-98055000D01*
X136677155Y-98055000D01*
X136617627Y-98061401D01*
X136617620Y-98061403D01*
X136482913Y-98111645D01*
X136482906Y-98111649D01*
X136367812Y-98197809D01*
X136367809Y-98197812D01*
X136281649Y-98312906D01*
X136281645Y-98312913D01*
X136231403Y-98447620D01*
X136231401Y-98447627D01*
X136225000Y-98507155D01*
X136225000Y-98940000D01*
X137044314Y-98940000D01*
X137039920Y-98944394D01*
X136987259Y-99035606D01*
X136960000Y-99137339D01*
X136960000Y-99242661D01*
X136987259Y-99344394D01*
X137039920Y-99435606D01*
X137044314Y-99440000D01*
X136225000Y-99440000D01*
X136225000Y-99446403D01*
X136205315Y-99513442D01*
X136152511Y-99559197D01*
X136083353Y-99569141D01*
X136019797Y-99540116D01*
X136013319Y-99534084D01*
X127557590Y-91078355D01*
X127557588Y-91078352D01*
X127438717Y-90959481D01*
X127438716Y-90959480D01*
X127351904Y-90909360D01*
X127351904Y-90909359D01*
X127351900Y-90909358D01*
X127301785Y-90880423D01*
X127149057Y-90839499D01*
X126990943Y-90839499D01*
X126983347Y-90839499D01*
X126983331Y-90839500D01*
X126760448Y-90839500D01*
X126693409Y-90819815D01*
X126660130Y-90788386D01*
X126596111Y-90700272D01*
X126469728Y-90573889D01*
X126325132Y-90468833D01*
X126165881Y-90387691D01*
X126165878Y-90387689D01*
X125995899Y-90332460D01*
X125878209Y-90313820D01*
X125819366Y-90304500D01*
X125640634Y-90304500D01*
X125581790Y-90313820D01*
X125464101Y-90332460D01*
X125464098Y-90332460D01*
X125294121Y-90387689D01*
X125294118Y-90387691D01*
X125134867Y-90468833D01*
X124990270Y-90573890D01*
X124863890Y-90700270D01*
X124758833Y-90844867D01*
X124677691Y-91004118D01*
X124677689Y-91004121D01*
X124622460Y-91174098D01*
X124622460Y-91174101D01*
X124594500Y-91350634D01*
X115700500Y-91350634D01*
X115700500Y-88810634D01*
X124594500Y-88810634D01*
X124594500Y-88989365D01*
X124622460Y-89165898D01*
X124622460Y-89165901D01*
X124677689Y-89335878D01*
X124677691Y-89335881D01*
X124758833Y-89495132D01*
X124863889Y-89639728D01*
X124990272Y-89766111D01*
X125134868Y-89871167D01*
X125294119Y-89952309D01*
X125294121Y-89952310D01*
X125452670Y-90003825D01*
X125464103Y-90007540D01*
X125640634Y-90035500D01*
X125640635Y-90035500D01*
X125819365Y-90035500D01*
X125819366Y-90035500D01*
X125995897Y-90007540D01*
X125995900Y-90007539D01*
X125995901Y-90007539D01*
X126165878Y-89952310D01*
X126165878Y-89952309D01*
X126165881Y-89952309D01*
X126325132Y-89871167D01*
X126469728Y-89766111D01*
X126596111Y-89639728D01*
X126660130Y-89551613D01*
X126715461Y-89508948D01*
X126760448Y-89500500D01*
X141715500Y-89500500D01*
X141782539Y-89520185D01*
X141828294Y-89572989D01*
X141839500Y-89624500D01*
X141839500Y-98159552D01*
X141819815Y-98226591D01*
X141788386Y-98259870D01*
X141700270Y-98323890D01*
X141573890Y-98450270D01*
X141468833Y-98594867D01*
X141387691Y-98754118D01*
X141387689Y-98754121D01*
X141332460Y-98924098D01*
X141332460Y-98924101D01*
X141304500Y-99100634D01*
X141304500Y-99279366D01*
X141313757Y-99337809D01*
X141332460Y-99455898D01*
X141332460Y-99455901D01*
X141387689Y-99625878D01*
X141387691Y-99625881D01*
X141468833Y-99785132D01*
X141573889Y-99929728D01*
X141700272Y-100056111D01*
X141844868Y-100161167D01*
X142004119Y-100242309D01*
X142004121Y-100242310D01*
X142162670Y-100293825D01*
X142174103Y-100297540D01*
X142350634Y-100325500D01*
X142350635Y-100325500D01*
X142529365Y-100325500D01*
X142529366Y-100325500D01*
X142705897Y-100297540D01*
X142705900Y-100297539D01*
X142705901Y-100297539D01*
X142875878Y-100242310D01*
X142875878Y-100242309D01*
X142875881Y-100242309D01*
X143035132Y-100161167D01*
X143179728Y-100056111D01*
X143306111Y-99929728D01*
X143411167Y-99785132D01*
X143492309Y-99625881D01*
X143503967Y-99590000D01*
X143547539Y-99455901D01*
X143547539Y-99455900D01*
X143547540Y-99455897D01*
X143575500Y-99279366D01*
X143575500Y-99100634D01*
X143547540Y-98924103D01*
X143547539Y-98924099D01*
X143547539Y-98924098D01*
X143492310Y-98754121D01*
X143492308Y-98754118D01*
X143477318Y-98724697D01*
X143411167Y-98594868D01*
X143306111Y-98450272D01*
X143179728Y-98323889D01*
X143091613Y-98259869D01*
X143048948Y-98204539D01*
X143040500Y-98159552D01*
X143040500Y-89029060D01*
X143040501Y-89029047D01*
X143040501Y-88860944D01*
X142999576Y-88708214D01*
X142999573Y-88708209D01*
X142920524Y-88571290D01*
X142920518Y-88571282D01*
X142768717Y-88419481D01*
X142768716Y-88419480D01*
X142681904Y-88369360D01*
X142681904Y-88369359D01*
X142681900Y-88369358D01*
X142631785Y-88340423D01*
X142479057Y-88299499D01*
X142320943Y-88299499D01*
X142313347Y-88299499D01*
X142313331Y-88299500D01*
X126760448Y-88299500D01*
X126693409Y-88279815D01*
X126660130Y-88248386D01*
X126596111Y-88160272D01*
X126469728Y-88033889D01*
X126325132Y-87928833D01*
X126165881Y-87847691D01*
X126165878Y-87847689D01*
X125995899Y-87792460D01*
X125878209Y-87773820D01*
X125819366Y-87764500D01*
X125640634Y-87764500D01*
X125581790Y-87773820D01*
X125464101Y-87792460D01*
X125464098Y-87792460D01*
X125294121Y-87847689D01*
X125294118Y-87847691D01*
X125134867Y-87928833D01*
X124990270Y-88033890D01*
X124863890Y-88160270D01*
X124758833Y-88304867D01*
X124677691Y-88464118D01*
X124677689Y-88464121D01*
X124622460Y-88634098D01*
X124622460Y-88634101D01*
X124594500Y-88810634D01*
X115700500Y-88810634D01*
X115700500Y-86270634D01*
X124594500Y-86270634D01*
X124594500Y-86449365D01*
X124622460Y-86625898D01*
X124622460Y-86625901D01*
X124677689Y-86795878D01*
X124677691Y-86795881D01*
X124758833Y-86955132D01*
X124863889Y-87099728D01*
X124990272Y-87226111D01*
X125134868Y-87331167D01*
X125294119Y-87412309D01*
X125294121Y-87412310D01*
X125452670Y-87463825D01*
X125464103Y-87467540D01*
X125640634Y-87495500D01*
X125640635Y-87495500D01*
X125819365Y-87495500D01*
X125819366Y-87495500D01*
X125995897Y-87467540D01*
X125995900Y-87467539D01*
X125995901Y-87467539D01*
X126165878Y-87412310D01*
X126165878Y-87412309D01*
X126165881Y-87412309D01*
X126325132Y-87331167D01*
X126469728Y-87226111D01*
X126596111Y-87099728D01*
X126701167Y-86955132D01*
X126782309Y-86795881D01*
X126837540Y-86625897D01*
X126865500Y-86449366D01*
X126865500Y-86270634D01*
X126837540Y-86094103D01*
X126837539Y-86094099D01*
X126837539Y-86094098D01*
X126782310Y-85924121D01*
X126782308Y-85924118D01*
X126701692Y-85765898D01*
X126701167Y-85764868D01*
X126596111Y-85620272D01*
X126469728Y-85493889D01*
X126325132Y-85388833D01*
X126165881Y-85307691D01*
X126165878Y-85307689D01*
X125995899Y-85252460D01*
X125878209Y-85233820D01*
X125819366Y-85224500D01*
X125640634Y-85224500D01*
X125581790Y-85233820D01*
X125464101Y-85252460D01*
X125464098Y-85252460D01*
X125294121Y-85307689D01*
X125294118Y-85307691D01*
X125134867Y-85388833D01*
X124990270Y-85493890D01*
X124863890Y-85620270D01*
X124758833Y-85764867D01*
X124677691Y-85924118D01*
X124677689Y-85924121D01*
X124622460Y-86094098D01*
X124622460Y-86094101D01*
X124594500Y-86270634D01*
X115700500Y-86270634D01*
X115700500Y-83730634D01*
X124594500Y-83730634D01*
X124594500Y-83909365D01*
X124622460Y-84085898D01*
X124622460Y-84085901D01*
X124677689Y-84255878D01*
X124677691Y-84255881D01*
X124758833Y-84415132D01*
X124863889Y-84559728D01*
X124990272Y-84686111D01*
X125134868Y-84791167D01*
X125294119Y-84872309D01*
X125294121Y-84872310D01*
X125452670Y-84923825D01*
X125464103Y-84927540D01*
X125640634Y-84955500D01*
X125640635Y-84955500D01*
X125819365Y-84955500D01*
X125819366Y-84955500D01*
X125995897Y-84927540D01*
X125995900Y-84927539D01*
X125995901Y-84927539D01*
X126165878Y-84872310D01*
X126165878Y-84872309D01*
X126165881Y-84872309D01*
X126325132Y-84791167D01*
X126469728Y-84686111D01*
X126596111Y-84559728D01*
X126701167Y-84415132D01*
X126782309Y-84255881D01*
X126834420Y-84095500D01*
X126837539Y-84085901D01*
X126837539Y-84085900D01*
X126837540Y-84085897D01*
X126865500Y-83909366D01*
X126865500Y-83730634D01*
X126837540Y-83554103D01*
X126837539Y-83554099D01*
X126837539Y-83554098D01*
X126782310Y-83384121D01*
X126782308Y-83384118D01*
X126770020Y-83360000D01*
X126701167Y-83224868D01*
X126596111Y-83080272D01*
X126469728Y-82953889D01*
X126325132Y-82848833D01*
X126165881Y-82767691D01*
X126165878Y-82767689D01*
X125995899Y-82712460D01*
X125878209Y-82693820D01*
X125819366Y-82684500D01*
X125640634Y-82684500D01*
X125581790Y-82693820D01*
X125464101Y-82712460D01*
X125464098Y-82712460D01*
X125294121Y-82767689D01*
X125294118Y-82767691D01*
X125134867Y-82848833D01*
X124990270Y-82953890D01*
X124863890Y-83080270D01*
X124758833Y-83224867D01*
X124677691Y-83384118D01*
X124677689Y-83384121D01*
X124622460Y-83554098D01*
X124622460Y-83554101D01*
X124594500Y-83730634D01*
X115700500Y-83730634D01*
X115700500Y-81190634D01*
X124594500Y-81190634D01*
X124594500Y-81369365D01*
X124622460Y-81545898D01*
X124622460Y-81545901D01*
X124677689Y-81715878D01*
X124677691Y-81715881D01*
X124758833Y-81875132D01*
X124863889Y-82019728D01*
X124990272Y-82146111D01*
X125134868Y-82251167D01*
X125294119Y-82332309D01*
X125294121Y-82332310D01*
X125452670Y-82383825D01*
X125464103Y-82387540D01*
X125640634Y-82415500D01*
X125640635Y-82415500D01*
X125819365Y-82415500D01*
X125819366Y-82415500D01*
X125995897Y-82387540D01*
X125995900Y-82387539D01*
X125995901Y-82387539D01*
X126165878Y-82332310D01*
X126165878Y-82332309D01*
X126165881Y-82332309D01*
X126325132Y-82251167D01*
X126469728Y-82146111D01*
X126596111Y-82019728D01*
X126660130Y-81931613D01*
X126715461Y-81888948D01*
X126760448Y-81880500D01*
X149425449Y-81880500D01*
X149492488Y-81900185D01*
X149538243Y-81952989D01*
X149548187Y-82022147D01*
X149524717Y-82078809D01*
X149521648Y-82082907D01*
X149521645Y-82082913D01*
X149471403Y-82217620D01*
X149471401Y-82217627D01*
X149465000Y-82277155D01*
X149465000Y-82710000D01*
X150284314Y-82710000D01*
X150279920Y-82714394D01*
X150227259Y-82805606D01*
X150200000Y-82907339D01*
X150200000Y-83012661D01*
X150227259Y-83114394D01*
X150279920Y-83205606D01*
X150284314Y-83210000D01*
X149465000Y-83210000D01*
X149465000Y-83642844D01*
X149471401Y-83702372D01*
X149471403Y-83702379D01*
X149521645Y-83837086D01*
X149521649Y-83837093D01*
X149607809Y-83952187D01*
X149607812Y-83952190D01*
X149722906Y-84038350D01*
X149722913Y-84038354D01*
X149857620Y-84088596D01*
X149857627Y-84088598D01*
X149917155Y-84094999D01*
X149917172Y-84095000D01*
X150350000Y-84095000D01*
X150350000Y-83275686D01*
X150354394Y-83280080D01*
X150445606Y-83332741D01*
X150547339Y-83360000D01*
X150652661Y-83360000D01*
X150754394Y-83332741D01*
X150845606Y-83280080D01*
X150850000Y-83275686D01*
X150850000Y-84095000D01*
X151282828Y-84095000D01*
X151282844Y-84094999D01*
X151342372Y-84088598D01*
X151342379Y-84088596D01*
X151477086Y-84038354D01*
X151477093Y-84038350D01*
X151592187Y-83952190D01*
X151592190Y-83952187D01*
X151678350Y-83837093D01*
X151678354Y-83837086D01*
X151728596Y-83702379D01*
X151728598Y-83702372D01*
X151734999Y-83642844D01*
X151735000Y-83642827D01*
X151735000Y-83210000D01*
X150915686Y-83210000D01*
X150920080Y-83205606D01*
X150972741Y-83114394D01*
X151000000Y-83012661D01*
X151000000Y-82907339D01*
X150972741Y-82805606D01*
X150920080Y-82714394D01*
X150915686Y-82710000D01*
X151735000Y-82710000D01*
X151735000Y-82277172D01*
X151734999Y-82277155D01*
X151728598Y-82217627D01*
X151728596Y-82217620D01*
X151678354Y-82082913D01*
X151678350Y-82082906D01*
X151592190Y-81967812D01*
X151592187Y-81967809D01*
X151477093Y-81881649D01*
X151477086Y-81881645D01*
X151342379Y-81831403D01*
X151342372Y-81831401D01*
X151282844Y-81825000D01*
X150850000Y-81825000D01*
X150850000Y-82644314D01*
X150845606Y-82639920D01*
X150754394Y-82587259D01*
X150652661Y-82560000D01*
X150547339Y-82560000D01*
X150445606Y-82587259D01*
X150354394Y-82639920D01*
X150350000Y-82644314D01*
X150350000Y-81825000D01*
X150343597Y-81825000D01*
X150276558Y-81805315D01*
X150230803Y-81752511D01*
X150220859Y-81683353D01*
X150249884Y-81619797D01*
X150255915Y-81613320D01*
X150277108Y-81592126D01*
X150295981Y-81573253D01*
X150309858Y-81565675D01*
X150320667Y-81554127D01*
X150339896Y-81549272D01*
X150357302Y-81539768D01*
X150380129Y-81539115D01*
X150388412Y-81537025D01*
X150393502Y-81538734D01*
X150403056Y-81538461D01*
X150510634Y-81555500D01*
X150510636Y-81555500D01*
X150689365Y-81555500D01*
X150689366Y-81555500D01*
X150865897Y-81527540D01*
X150865900Y-81527539D01*
X150865901Y-81527539D01*
X151035878Y-81472310D01*
X151035878Y-81472309D01*
X151035881Y-81472309D01*
X151195132Y-81391167D01*
X151339728Y-81286111D01*
X151466111Y-81159728D01*
X151571167Y-81015132D01*
X151652309Y-80855881D01*
X151707540Y-80685897D01*
X151735500Y-80509366D01*
X151735500Y-80330634D01*
X151707540Y-80154103D01*
X151707539Y-80154099D01*
X151707539Y-80154098D01*
X151652310Y-79984121D01*
X151652308Y-79984118D01*
X151582719Y-79847540D01*
X151571167Y-79824868D01*
X151466111Y-79680272D01*
X151339728Y-79553889D01*
X151195132Y-79448833D01*
X151035881Y-79367691D01*
X151035878Y-79367689D01*
X150865899Y-79312460D01*
X150748209Y-79293820D01*
X150689366Y-79284500D01*
X150510634Y-79284500D01*
X150451790Y-79293820D01*
X150334101Y-79312460D01*
X150334098Y-79312460D01*
X150164121Y-79367689D01*
X150164118Y-79367691D01*
X150004867Y-79448833D01*
X149860270Y-79553890D01*
X149733890Y-79680270D01*
X149628833Y-79824867D01*
X149547691Y-79984118D01*
X149547689Y-79984121D01*
X149492460Y-80154098D01*
X149492460Y-80154101D01*
X149464500Y-80330634D01*
X149464500Y-80509370D01*
X149468734Y-80536101D01*
X149459780Y-80605395D01*
X149414784Y-80658847D01*
X149348033Y-80679487D01*
X149346261Y-80679500D01*
X126760448Y-80679500D01*
X126693409Y-80659815D01*
X126660130Y-80628386D01*
X126643426Y-80605395D01*
X126596111Y-80540272D01*
X126469728Y-80413889D01*
X126325132Y-80308833D01*
X126165881Y-80227691D01*
X126165878Y-80227689D01*
X125995899Y-80172460D01*
X125878209Y-80153820D01*
X125819366Y-80144500D01*
X125640634Y-80144500D01*
X125581790Y-80153820D01*
X125464101Y-80172460D01*
X125464098Y-80172460D01*
X125294121Y-80227689D01*
X125294118Y-80227691D01*
X125134867Y-80308833D01*
X124990270Y-80413890D01*
X124863890Y-80540270D01*
X124758833Y-80684867D01*
X124677691Y-80844118D01*
X124677689Y-80844121D01*
X124622460Y-81014098D01*
X124622460Y-81014101D01*
X124594500Y-81190634D01*
X115700500Y-81190634D01*
X115700500Y-78650634D01*
X124594500Y-78650634D01*
X124594500Y-78829365D01*
X124622460Y-79005898D01*
X124622460Y-79005901D01*
X124677689Y-79175878D01*
X124677691Y-79175881D01*
X124758833Y-79335132D01*
X124863889Y-79479728D01*
X124990272Y-79606111D01*
X125134868Y-79711167D01*
X125294119Y-79792309D01*
X125294121Y-79792310D01*
X125452670Y-79843825D01*
X125464103Y-79847540D01*
X125640634Y-79875500D01*
X125640635Y-79875500D01*
X125819365Y-79875500D01*
X125819366Y-79875500D01*
X125995897Y-79847540D01*
X125995900Y-79847539D01*
X125995901Y-79847539D01*
X126165878Y-79792310D01*
X126165878Y-79792309D01*
X126165881Y-79792309D01*
X126325132Y-79711167D01*
X126469728Y-79606111D01*
X126596111Y-79479728D01*
X126701167Y-79335132D01*
X126782309Y-79175881D01*
X126837540Y-79005897D01*
X126865500Y-78829366D01*
X126865500Y-78650634D01*
X126837540Y-78474103D01*
X126837539Y-78474099D01*
X126837539Y-78474098D01*
X126782310Y-78304121D01*
X126782308Y-78304118D01*
X126730456Y-78202351D01*
X126701167Y-78144868D01*
X126596111Y-78000272D01*
X126469728Y-77873889D01*
X126325132Y-77768833D01*
X126165881Y-77687691D01*
X126165878Y-77687689D01*
X125995899Y-77632460D01*
X125878209Y-77613820D01*
X125819366Y-77604500D01*
X125640634Y-77604500D01*
X125581790Y-77613820D01*
X125464101Y-77632460D01*
X125464098Y-77632460D01*
X125294121Y-77687689D01*
X125294118Y-77687691D01*
X125134867Y-77768833D01*
X124990270Y-77873890D01*
X124863890Y-78000270D01*
X124758833Y-78144867D01*
X124677691Y-78304118D01*
X124677689Y-78304121D01*
X124622460Y-78474098D01*
X124622460Y-78474101D01*
X124594500Y-78650634D01*
X115700500Y-78650634D01*
X115700500Y-75224500D01*
X115720185Y-75157461D01*
X115772989Y-75111706D01*
X115824500Y-75100500D01*
X124929872Y-75100500D01*
X124996911Y-75120185D01*
X125042666Y-75172989D01*
X125052610Y-75242147D01*
X125023585Y-75305703D01*
X125002761Y-75324814D01*
X124990272Y-75333889D01*
X124990270Y-75333891D01*
X124990269Y-75333891D01*
X124863890Y-75460270D01*
X124758833Y-75604867D01*
X124677691Y-75764118D01*
X124677689Y-75764121D01*
X124622460Y-75934098D01*
X124622460Y-75934101D01*
X124594500Y-76110634D01*
X124594500Y-76289365D01*
X124622460Y-76465898D01*
X124622460Y-76465901D01*
X124677689Y-76635878D01*
X124677691Y-76635881D01*
X124758833Y-76795132D01*
X124863889Y-76939728D01*
X124990272Y-77066111D01*
X125134868Y-77171167D01*
X125294119Y-77252309D01*
X125294121Y-77252310D01*
X125452670Y-77303825D01*
X125464103Y-77307540D01*
X125640634Y-77335500D01*
X125640635Y-77335500D01*
X125819365Y-77335500D01*
X125819366Y-77335500D01*
X125995897Y-77307540D01*
X125995900Y-77307539D01*
X125995901Y-77307539D01*
X126165878Y-77252310D01*
X126165878Y-77252309D01*
X126165881Y-77252309D01*
X126325132Y-77171167D01*
X126469728Y-77066111D01*
X126596111Y-76939728D01*
X126701167Y-76795132D01*
X126782309Y-76635881D01*
X126837540Y-76465897D01*
X126865500Y-76289366D01*
X126865500Y-76110634D01*
X126837540Y-75934103D01*
X126837539Y-75934099D01*
X126837539Y-75934098D01*
X126782310Y-75764121D01*
X126782308Y-75764118D01*
X126775381Y-75750521D01*
X126701167Y-75604868D01*
X126596111Y-75460272D01*
X126469728Y-75333889D01*
X126457240Y-75324816D01*
X126414577Y-75269488D01*
X126408598Y-75199874D01*
X126441204Y-75138079D01*
X126502043Y-75103722D01*
X126530128Y-75100500D01*
X133355500Y-75100500D01*
X133422539Y-75120185D01*
X133468294Y-75172989D01*
X133479500Y-75224500D01*
X133479500Y-76870397D01*
X133459815Y-76937436D01*
X133411800Y-76980879D01*
X133398389Y-76987712D01*
X133232786Y-77108028D01*
X133088028Y-77252786D01*
X132967715Y-77418386D01*
X132874781Y-77600776D01*
X132811522Y-77795465D01*
X132779500Y-77997648D01*
X132779500Y-78202351D01*
X132811522Y-78404534D01*
X132874781Y-78599223D01*
X132936714Y-78720771D01*
X132963620Y-78773578D01*
X132967715Y-78781613D01*
X133088028Y-78947213D01*
X133232786Y-79091971D01*
X133348281Y-79175881D01*
X133398390Y-79212287D01*
X133514607Y-79271503D01*
X133580776Y-79305218D01*
X133580778Y-79305218D01*
X133580781Y-79305220D01*
X133672841Y-79335132D01*
X133775465Y-79368477D01*
X133876557Y-79384488D01*
X133977648Y-79400500D01*
X133977649Y-79400500D01*
X134182351Y-79400500D01*
X134182352Y-79400500D01*
X134384534Y-79368477D01*
X134579219Y-79305220D01*
X134761610Y-79212287D01*
X134854590Y-79144732D01*
X134927213Y-79091971D01*
X134927215Y-79091968D01*
X134927219Y-79091966D01*
X135071966Y-78947219D01*
X135071968Y-78947215D01*
X135071971Y-78947213D01*
X135141752Y-78851166D01*
X135192287Y-78781610D01*
X135285220Y-78599219D01*
X135348477Y-78404534D01*
X135380500Y-78202352D01*
X135380500Y-77997648D01*
X135348477Y-77795465D01*
X135295513Y-77632460D01*
X135285220Y-77600781D01*
X135285218Y-77600778D01*
X135285218Y-77600776D01*
X135217270Y-77467422D01*
X135192287Y-77418390D01*
X135178563Y-77399500D01*
X135071971Y-77252786D01*
X134927213Y-77108028D01*
X134761610Y-76987712D01*
X134748200Y-76980879D01*
X134697406Y-76932903D01*
X134680500Y-76870397D01*
X134680500Y-75224500D01*
X134700185Y-75157461D01*
X134752989Y-75111706D01*
X134804500Y-75100500D01*
X137879055Y-75100500D01*
X137879057Y-75100500D01*
X138031784Y-75059577D01*
X138168716Y-74980520D01*
X138280520Y-74868716D01*
X138359577Y-74731784D01*
X138400500Y-74579057D01*
X138400500Y-73680446D01*
X138401036Y-73678617D01*
X138400554Y-73676772D01*
X138410842Y-73645222D01*
X138420185Y-73613407D01*
X138421813Y-73611583D01*
X138422217Y-73610345D01*
X138430739Y-73601585D01*
X138446110Y-73584368D01*
X138448790Y-73582180D01*
X138539728Y-73516111D01*
X138666111Y-73389728D01*
X138771167Y-73245132D01*
X138852309Y-73085881D01*
X138863967Y-73050000D01*
X138907539Y-72915901D01*
X138907539Y-72915900D01*
X138907540Y-72915897D01*
X138935500Y-72739366D01*
X138935500Y-72560668D01*
X139205000Y-72560668D01*
X139205000Y-72739331D01*
X139232946Y-72915780D01*
X139288155Y-73085693D01*
X139369260Y-73244869D01*
X139378651Y-73257793D01*
X139378652Y-73257794D01*
X139940000Y-72696446D01*
X139940000Y-72702661D01*
X139967259Y-72804394D01*
X140019920Y-72895606D01*
X140094394Y-72970080D01*
X140185606Y-73022741D01*
X140287339Y-73050000D01*
X140293554Y-73050000D01*
X139732205Y-73611347D01*
X139732205Y-73611348D01*
X139745129Y-73620738D01*
X139904306Y-73701844D01*
X140074219Y-73757053D01*
X140250669Y-73785000D01*
X140429331Y-73785000D01*
X140605780Y-73757053D01*
X140775693Y-73701844D01*
X140934867Y-73620739D01*
X140934872Y-73620737D01*
X140947794Y-73611347D01*
X140386447Y-73050000D01*
X140392661Y-73050000D01*
X140494394Y-73022741D01*
X140585606Y-72970080D01*
X140660080Y-72895606D01*
X140712741Y-72804394D01*
X140740000Y-72702661D01*
X140740000Y-72696446D01*
X141301348Y-73257794D01*
X141310737Y-73244872D01*
X141310739Y-73244867D01*
X141391844Y-73085693D01*
X141447053Y-72915780D01*
X141475000Y-72739331D01*
X141475000Y-72560668D01*
X141447053Y-72384219D01*
X141391844Y-72214306D01*
X141310738Y-72055129D01*
X141301347Y-72042205D01*
X140740000Y-72603552D01*
X140740000Y-72597339D01*
X140712741Y-72495606D01*
X140660080Y-72404394D01*
X140585606Y-72329920D01*
X140494394Y-72277259D01*
X140392661Y-72250000D01*
X140386447Y-72250000D01*
X140947794Y-71688652D01*
X140947793Y-71688651D01*
X140934869Y-71679260D01*
X140775693Y-71598155D01*
X140605780Y-71542946D01*
X140429331Y-71515000D01*
X140250669Y-71515000D01*
X140074219Y-71542946D01*
X139904306Y-71598155D01*
X139745127Y-71679262D01*
X139732205Y-71688651D01*
X139732204Y-71688651D01*
X140293554Y-72250000D01*
X140287339Y-72250000D01*
X140185606Y-72277259D01*
X140094394Y-72329920D01*
X140019920Y-72404394D01*
X139967259Y-72495606D01*
X139940000Y-72597339D01*
X139940000Y-72603553D01*
X139378651Y-72042204D01*
X139378651Y-72042205D01*
X139369262Y-72055127D01*
X139288155Y-72214306D01*
X139232946Y-72384219D01*
X139205000Y-72560668D01*
X138935500Y-72560668D01*
X138935500Y-72560634D01*
X138907540Y-72384103D01*
X138907539Y-72384099D01*
X138907539Y-72384098D01*
X138852310Y-72214121D01*
X138852308Y-72214118D01*
X138847595Y-72204867D01*
X138771167Y-72054868D01*
X138666111Y-71910272D01*
X138539728Y-71783889D01*
X138395132Y-71678833D01*
X138235881Y-71597691D01*
X138235878Y-71597689D01*
X138065899Y-71542460D01*
X137901330Y-71516395D01*
X137889366Y-71514500D01*
X137710634Y-71514500D01*
X137698670Y-71516395D01*
X137534101Y-71542460D01*
X137534098Y-71542460D01*
X137364121Y-71597689D01*
X137364118Y-71597691D01*
X137204867Y-71678833D01*
X137060270Y-71783890D01*
X136933890Y-71910270D01*
X136828833Y-72054867D01*
X136747691Y-72214118D01*
X136747689Y-72214121D01*
X136692460Y-72384098D01*
X136692460Y-72384101D01*
X136664500Y-72560634D01*
X136664500Y-72739365D01*
X136692460Y-72915898D01*
X136692460Y-72915901D01*
X136747689Y-73085878D01*
X136747691Y-73085881D01*
X136828833Y-73245132D01*
X136933889Y-73389728D01*
X137060272Y-73516111D01*
X137148388Y-73580131D01*
X137191051Y-73635457D01*
X137199500Y-73680446D01*
X137199500Y-73775500D01*
X137179815Y-73842539D01*
X137127011Y-73888294D01*
X137075500Y-73899500D01*
X136281856Y-73899500D01*
X136214817Y-73879815D01*
X136169062Y-73827011D01*
X136159118Y-73757853D01*
X136188143Y-73694297D01*
X136207540Y-73676236D01*
X136252546Y-73642546D01*
X136338796Y-73527331D01*
X136389091Y-73392483D01*
X136395500Y-73332873D01*
X136395499Y-71967128D01*
X136389091Y-71907517D01*
X136338796Y-71772669D01*
X136338795Y-71772668D01*
X136338793Y-71772664D01*
X136252547Y-71657455D01*
X136252544Y-71657452D01*
X136137335Y-71571206D01*
X136137330Y-71571203D01*
X136041166Y-71535336D01*
X135985233Y-71493464D01*
X135960816Y-71428000D01*
X135960500Y-71419154D01*
X135960500Y-70924500D01*
X135980185Y-70857461D01*
X136032989Y-70811706D01*
X136084500Y-70800500D01*
X142675500Y-70800500D01*
X142742539Y-70820185D01*
X142788294Y-70872989D01*
X142799500Y-70924500D01*
X142799500Y-77060953D01*
X142779815Y-77127992D01*
X142727011Y-77173747D01*
X142657853Y-77183691D01*
X142594297Y-77154666D01*
X142587819Y-77148634D01*
X142547213Y-77108028D01*
X142381613Y-76987715D01*
X142381612Y-76987714D01*
X142381610Y-76987713D01*
X142324653Y-76958691D01*
X142199223Y-76894781D01*
X142004534Y-76831522D01*
X141829995Y-76803878D01*
X141802352Y-76799500D01*
X141597648Y-76799500D01*
X141573329Y-76803351D01*
X141395465Y-76831522D01*
X141200776Y-76894781D01*
X141018386Y-76987715D01*
X140852786Y-77108028D01*
X140708028Y-77252786D01*
X140587715Y-77418386D01*
X140494781Y-77600776D01*
X140431522Y-77795465D01*
X140399500Y-77997648D01*
X140399500Y-78202351D01*
X140431522Y-78404534D01*
X140494781Y-78599223D01*
X140556714Y-78720771D01*
X140583620Y-78773578D01*
X140587715Y-78781613D01*
X140708028Y-78947213D01*
X140852786Y-79091971D01*
X140968281Y-79175881D01*
X141018390Y-79212287D01*
X141134607Y-79271503D01*
X141200776Y-79305218D01*
X141200778Y-79305218D01*
X141200781Y-79305220D01*
X141292841Y-79335132D01*
X141395465Y-79368477D01*
X141496557Y-79384488D01*
X141597648Y-79400500D01*
X141597649Y-79400500D01*
X141802351Y-79400500D01*
X141802352Y-79400500D01*
X142004534Y-79368477D01*
X142199219Y-79305220D01*
X142381610Y-79212287D01*
X142474590Y-79144732D01*
X142547213Y-79091971D01*
X142547215Y-79091968D01*
X142547219Y-79091966D01*
X142691966Y-78947219D01*
X142761425Y-78851615D01*
X142816755Y-78808949D01*
X142861744Y-78800500D01*
X143568995Y-78800500D01*
X143663959Y-78781610D01*
X143704328Y-78773580D01*
X143831811Y-78720775D01*
X143946542Y-78644114D01*
X143991437Y-78599219D01*
X144041608Y-78549049D01*
X144102931Y-78515564D01*
X144172623Y-78520548D01*
X144216970Y-78549049D01*
X144289707Y-78621786D01*
X144289711Y-78621789D01*
X144420814Y-78709390D01*
X144420827Y-78709397D01*
X144509464Y-78746111D01*
X144566503Y-78769737D01*
X144721153Y-78800499D01*
X144721156Y-78800500D01*
X144721158Y-78800500D01*
X144878844Y-78800500D01*
X144878845Y-78800499D01*
X145033497Y-78769737D01*
X145179179Y-78709394D01*
X145310289Y-78621789D01*
X145332859Y-78599219D01*
X145415260Y-78516819D01*
X145476583Y-78483334D01*
X145502941Y-78480500D01*
X149569552Y-78480500D01*
X149636591Y-78500185D01*
X149669869Y-78531613D01*
X149733889Y-78619728D01*
X149860272Y-78746111D01*
X150004868Y-78851167D01*
X150164119Y-78932309D01*
X150164121Y-78932310D01*
X150210007Y-78947219D01*
X150334103Y-78987540D01*
X150510634Y-79015500D01*
X150510635Y-79015500D01*
X150689365Y-79015500D01*
X150689366Y-79015500D01*
X150865897Y-78987540D01*
X150865900Y-78987539D01*
X150865901Y-78987539D01*
X151035878Y-78932310D01*
X151035878Y-78932309D01*
X151035881Y-78932309D01*
X151195132Y-78851167D01*
X151339728Y-78746111D01*
X151466111Y-78619728D01*
X151571167Y-78475132D01*
X151652309Y-78315881D01*
X151707540Y-78145897D01*
X151735500Y-77969366D01*
X151735500Y-77790634D01*
X151707540Y-77614103D01*
X151707539Y-77614099D01*
X151707539Y-77614098D01*
X151652310Y-77444121D01*
X151652308Y-77444118D01*
X151629575Y-77399500D01*
X151571167Y-77284868D01*
X151466111Y-77140272D01*
X151339728Y-77013889D01*
X151195132Y-76908833D01*
X151035881Y-76827691D01*
X151035878Y-76827689D01*
X150865899Y-76772460D01*
X150748209Y-76753820D01*
X150689366Y-76744500D01*
X150510634Y-76744500D01*
X150451790Y-76753820D01*
X150334101Y-76772460D01*
X150334098Y-76772460D01*
X150164121Y-76827689D01*
X150164118Y-76827691D01*
X150004867Y-76908833D01*
X149860270Y-77013890D01*
X149733890Y-77140270D01*
X149669870Y-77228386D01*
X149614539Y-77271052D01*
X149569552Y-77279500D01*
X145177031Y-77279500D01*
X145129579Y-77270061D01*
X145033498Y-77230263D01*
X145033488Y-77230260D01*
X144878845Y-77199500D01*
X144878842Y-77199500D01*
X144721158Y-77199500D01*
X144721155Y-77199500D01*
X144566510Y-77230261D01*
X144566498Y-77230264D01*
X144420827Y-77290602D01*
X144420816Y-77290608D01*
X144393390Y-77308934D01*
X144326712Y-77329811D01*
X144259332Y-77311326D01*
X144212643Y-77259346D01*
X144200500Y-77205831D01*
X144200500Y-70924500D01*
X144220185Y-70857461D01*
X144272989Y-70811706D01*
X144324500Y-70800500D01*
X149775500Y-70800500D01*
X149842539Y-70820185D01*
X149888294Y-70872989D01*
X149899500Y-70924500D01*
X149899500Y-74383298D01*
X149879815Y-74450337D01*
X149863182Y-74470979D01*
X149733888Y-74600273D01*
X149628833Y-74744867D01*
X149547691Y-74904118D01*
X149547689Y-74904121D01*
X149492460Y-75074098D01*
X149492460Y-75074101D01*
X149464500Y-75250634D01*
X149464500Y-75429365D01*
X149492460Y-75605898D01*
X149492460Y-75605901D01*
X149547689Y-75775878D01*
X149547691Y-75775881D01*
X149628833Y-75935132D01*
X149733889Y-76079728D01*
X149860272Y-76206111D01*
X150004868Y-76311167D01*
X150164119Y-76392309D01*
X150164121Y-76392310D01*
X150244462Y-76418414D01*
X150334103Y-76447540D01*
X150510634Y-76475500D01*
X150510635Y-76475500D01*
X150689365Y-76475500D01*
X150689366Y-76475500D01*
X150865897Y-76447540D01*
X150865900Y-76447539D01*
X150865901Y-76447539D01*
X151035878Y-76392310D01*
X151035878Y-76392309D01*
X151035881Y-76392309D01*
X151195132Y-76311167D01*
X151339728Y-76206111D01*
X151466111Y-76079728D01*
X151571167Y-75935132D01*
X151643223Y-75793713D01*
X158649500Y-75793713D01*
X158649500Y-76006287D01*
X158682754Y-76216243D01*
X158739961Y-76392308D01*
X158748444Y-76418414D01*
X158844951Y-76607820D01*
X158969890Y-76779786D01*
X159120213Y-76930109D01*
X159292179Y-77055048D01*
X159292181Y-77055049D01*
X159292184Y-77055051D01*
X159481588Y-77151557D01*
X159683757Y-77217246D01*
X159893713Y-77250500D01*
X159893714Y-77250500D01*
X160106286Y-77250500D01*
X160106287Y-77250500D01*
X160316243Y-77217246D01*
X160518412Y-77151557D01*
X160707816Y-77055051D01*
X160800497Y-76987715D01*
X160879786Y-76930109D01*
X160879788Y-76930106D01*
X160879792Y-76930104D01*
X161030104Y-76779792D01*
X161030106Y-76779788D01*
X161030109Y-76779786D01*
X161155048Y-76607820D01*
X161155047Y-76607820D01*
X161155051Y-76607816D01*
X161251557Y-76418412D01*
X161317246Y-76216243D01*
X161350500Y-76006287D01*
X161350500Y-75793713D01*
X161317246Y-75583757D01*
X161251557Y-75381588D01*
X161155051Y-75192184D01*
X161155049Y-75192181D01*
X161155048Y-75192179D01*
X161030109Y-75020213D01*
X160879786Y-74869890D01*
X160707820Y-74744951D01*
X160518414Y-74648444D01*
X160518413Y-74648443D01*
X160518412Y-74648443D01*
X160316243Y-74582754D01*
X160316241Y-74582753D01*
X160316240Y-74582753D01*
X160154957Y-74557208D01*
X160106287Y-74549500D01*
X159893713Y-74549500D01*
X159845042Y-74557208D01*
X159683760Y-74582753D01*
X159481585Y-74648444D01*
X159292179Y-74744951D01*
X159120213Y-74869890D01*
X158969890Y-75020213D01*
X158844951Y-75192179D01*
X158748444Y-75381585D01*
X158682753Y-75583760D01*
X158656341Y-75750521D01*
X158649500Y-75793713D01*
X151643223Y-75793713D01*
X151652309Y-75775881D01*
X151707540Y-75605897D01*
X151735500Y-75429366D01*
X151735500Y-75250634D01*
X151707540Y-75074103D01*
X151707539Y-75074099D01*
X151707539Y-75074098D01*
X151652310Y-74904121D01*
X151652308Y-74904118D01*
X151634872Y-74869896D01*
X151571167Y-74744868D01*
X151466111Y-74600272D01*
X151339728Y-74473889D01*
X151339727Y-74473888D01*
X151336818Y-74470979D01*
X151303334Y-74409656D01*
X151300500Y-74383298D01*
X151300500Y-70924500D01*
X151320185Y-70857461D01*
X151372989Y-70811706D01*
X151424500Y-70800500D01*
X164275500Y-70800500D01*
X164342539Y-70820185D01*
X164388294Y-70872989D01*
X164399500Y-70924500D01*
X164399500Y-95575500D01*
X164379815Y-95642539D01*
X164327011Y-95688294D01*
X164275500Y-95699500D01*
X149031005Y-95699500D01*
X148895677Y-95726418D01*
X148895667Y-95726421D01*
X148768195Y-95779221D01*
X148768182Y-95779228D01*
X148653458Y-95855885D01*
X148653454Y-95855888D01*
X148555888Y-95953454D01*
X148555885Y-95953458D01*
X148479228Y-96068182D01*
X148479221Y-96068195D01*
X148426421Y-96195667D01*
X148426418Y-96195677D01*
X148399500Y-96331004D01*
X148399500Y-100975500D01*
X148379815Y-101042539D01*
X148327011Y-101088294D01*
X148275500Y-101099500D01*
X140724500Y-101099500D01*
X140657461Y-101079815D01*
X140611706Y-101027011D01*
X140600500Y-100975500D01*
X140600500Y-100146701D01*
X140620185Y-100079662D01*
X140636819Y-100059020D01*
X140685919Y-100009920D01*
X140766111Y-99929728D01*
X140871167Y-99785132D01*
X140952309Y-99625881D01*
X140963967Y-99590000D01*
X141007539Y-99455901D01*
X141007539Y-99455900D01*
X141007540Y-99455897D01*
X141035500Y-99279366D01*
X141035500Y-99100634D01*
X141007540Y-98924103D01*
X141007539Y-98924099D01*
X141007539Y-98924098D01*
X140952310Y-98754121D01*
X140952308Y-98754118D01*
X140937318Y-98724697D01*
X140871167Y-98594868D01*
X140766111Y-98450272D01*
X140639728Y-98323889D01*
X140495132Y-98218833D01*
X140335881Y-98137691D01*
X140335878Y-98137689D01*
X140165899Y-98082460D01*
X140032937Y-98061401D01*
X139989366Y-98054500D01*
X139810634Y-98054500D01*
X139767063Y-98061401D01*
X139634101Y-98082460D01*
X139634098Y-98082460D01*
X139464121Y-98137689D01*
X139464118Y-98137691D01*
X139304867Y-98218833D01*
X139160270Y-98323890D01*
X139033890Y-98450270D01*
X138928833Y-98594867D01*
X138847691Y-98754118D01*
X138847689Y-98754121D01*
X138792460Y-98924098D01*
X138792460Y-98924101D01*
X138764500Y-99100634D01*
X138764500Y-99279366D01*
X138773757Y-99337809D01*
X138792460Y-99455898D01*
X138792460Y-99455901D01*
X138847689Y-99625878D01*
X138847691Y-99625881D01*
X138928833Y-99785132D01*
X139008017Y-99894119D01*
X139033890Y-99929729D01*
X139163181Y-100059020D01*
X139196666Y-100120343D01*
X139199500Y-100146701D01*
X139199500Y-101868993D01*
X139199500Y-101868995D01*
X139199499Y-101868995D01*
X139226418Y-102004322D01*
X139226421Y-102004332D01*
X139279221Y-102131804D01*
X139279228Y-102131817D01*
X139355885Y-102246541D01*
X139355888Y-102246545D01*
X139453454Y-102344111D01*
X139453458Y-102344114D01*
X139568182Y-102420771D01*
X139568195Y-102420778D01*
X139677635Y-102466109D01*
X139695672Y-102473580D01*
X139695676Y-102473580D01*
X139695677Y-102473581D01*
X139831004Y-102500500D01*
X139831007Y-102500500D01*
X149068996Y-102500500D01*
X149160040Y-102482389D01*
X149204328Y-102473580D01*
X149268069Y-102447177D01*
X149331807Y-102420777D01*
X149331808Y-102420776D01*
X149331811Y-102420775D01*
X149446543Y-102344114D01*
X149644113Y-102146543D01*
X149718056Y-102035881D01*
X149720775Y-102031811D01*
X149773580Y-101904328D01*
X149800500Y-101768993D01*
X149800500Y-99647155D01*
X161425000Y-99647155D01*
X161425000Y-100080000D01*
X162244314Y-100080000D01*
X162239920Y-100084394D01*
X162187259Y-100175606D01*
X162160000Y-100277339D01*
X162160000Y-100382661D01*
X162187259Y-100484394D01*
X162239920Y-100575606D01*
X162244314Y-100580000D01*
X161425000Y-100580000D01*
X161425000Y-101012844D01*
X161431401Y-101072372D01*
X161431403Y-101072379D01*
X161481645Y-101207086D01*
X161481649Y-101207093D01*
X161567809Y-101322187D01*
X161567812Y-101322190D01*
X161682906Y-101408350D01*
X161682913Y-101408354D01*
X161817620Y-101458596D01*
X161817627Y-101458598D01*
X161877155Y-101464999D01*
X161877172Y-101465000D01*
X162310000Y-101465000D01*
X162310000Y-100645686D01*
X162314394Y-100650080D01*
X162405606Y-100702741D01*
X162507339Y-100730000D01*
X162612661Y-100730000D01*
X162714394Y-100702741D01*
X162805606Y-100650080D01*
X162810000Y-100645686D01*
X162810000Y-101465000D01*
X163242828Y-101465000D01*
X163242844Y-101464999D01*
X163302372Y-101458598D01*
X163302379Y-101458596D01*
X163437086Y-101408354D01*
X163437093Y-101408350D01*
X163552187Y-101322190D01*
X163552190Y-101322187D01*
X163638350Y-101207093D01*
X163638354Y-101207086D01*
X163688596Y-101072379D01*
X163688598Y-101072372D01*
X163694999Y-101012844D01*
X163695000Y-101012827D01*
X163695000Y-100580000D01*
X162875686Y-100580000D01*
X162880080Y-100575606D01*
X162932741Y-100484394D01*
X162960000Y-100382661D01*
X162960000Y-100277339D01*
X162932741Y-100175606D01*
X162880080Y-100084394D01*
X162875686Y-100080000D01*
X163695000Y-100080000D01*
X163695000Y-99647172D01*
X163694999Y-99647155D01*
X163688598Y-99587627D01*
X163688596Y-99587620D01*
X163638354Y-99452913D01*
X163638350Y-99452906D01*
X163552190Y-99337812D01*
X163552187Y-99337809D01*
X163437093Y-99251649D01*
X163437086Y-99251645D01*
X163302379Y-99201403D01*
X163302372Y-99201401D01*
X163242844Y-99195000D01*
X162810000Y-99195000D01*
X162810000Y-100014314D01*
X162805606Y-100009920D01*
X162714394Y-99957259D01*
X162612661Y-99930000D01*
X162507339Y-99930000D01*
X162405606Y-99957259D01*
X162314394Y-100009920D01*
X162310000Y-100014314D01*
X162310000Y-99195000D01*
X161877155Y-99195000D01*
X161817627Y-99201401D01*
X161817620Y-99201403D01*
X161682913Y-99251645D01*
X161682906Y-99251649D01*
X161567812Y-99337809D01*
X161567809Y-99337812D01*
X161481649Y-99452906D01*
X161481645Y-99452913D01*
X161431403Y-99587620D01*
X161431401Y-99587627D01*
X161425000Y-99647155D01*
X149800500Y-99647155D01*
X149800500Y-97224500D01*
X149820185Y-97157461D01*
X149872989Y-97111706D01*
X149924500Y-97100500D01*
X164275500Y-97100500D01*
X164342539Y-97120185D01*
X164388294Y-97172989D01*
X164399500Y-97224500D01*
X164399500Y-99373298D01*
X164379815Y-99440337D01*
X164363182Y-99460979D01*
X164233888Y-99590273D01*
X164128833Y-99734867D01*
X164047691Y-99894118D01*
X164047689Y-99894121D01*
X163992460Y-100064098D01*
X163992460Y-100064101D01*
X163964500Y-100240634D01*
X163964500Y-100419365D01*
X163992460Y-100595898D01*
X163992460Y-100595901D01*
X164047689Y-100765878D01*
X164047691Y-100765881D01*
X164128833Y-100925132D01*
X164233890Y-101069729D01*
X164363181Y-101199020D01*
X164396666Y-101260343D01*
X164399500Y-101286701D01*
X164399500Y-113475500D01*
X164379815Y-113542539D01*
X164327011Y-113588294D01*
X164275500Y-113599500D01*
X143196701Y-113599500D01*
X143129662Y-113579815D01*
X143109020Y-113563181D01*
X142979729Y-113433890D01*
X142835132Y-113328833D01*
X142675881Y-113247691D01*
X142675878Y-113247689D01*
X142505899Y-113192460D01*
X142369824Y-113170908D01*
X142329366Y-113164500D01*
X142150634Y-113164500D01*
X142110176Y-113170908D01*
X141974101Y-113192460D01*
X141974098Y-113192460D01*
X141804121Y-113247689D01*
X141804118Y-113247691D01*
X141644867Y-113328833D01*
X141500270Y-113433890D01*
X141373890Y-113560270D01*
X141268833Y-113704867D01*
X141187691Y-113864118D01*
X141187689Y-113864121D01*
X141132460Y-114034098D01*
X141132460Y-114034101D01*
X141104500Y-114210634D01*
X141104500Y-114389365D01*
X141132460Y-114565898D01*
X141132460Y-114565901D01*
X141187689Y-114735878D01*
X141187691Y-114735881D01*
X141268833Y-114895132D01*
X141373889Y-115039728D01*
X141500272Y-115166111D01*
X141644868Y-115271167D01*
X141804119Y-115352309D01*
X141804121Y-115352310D01*
X141962670Y-115403825D01*
X141974103Y-115407540D01*
X142150634Y-115435500D01*
X142150635Y-115435500D01*
X142329365Y-115435500D01*
X142329366Y-115435500D01*
X142505897Y-115407540D01*
X142505900Y-115407539D01*
X142505901Y-115407539D01*
X142675878Y-115352310D01*
X142675878Y-115352309D01*
X142675881Y-115352309D01*
X142835132Y-115271167D01*
X142979728Y-115166111D01*
X143106111Y-115039728D01*
X143106111Y-115039727D01*
X143109020Y-115036819D01*
X143170343Y-115003334D01*
X143196701Y-115000500D01*
X165168995Y-115000500D01*
X165260041Y-114982389D01*
X165304328Y-114973580D01*
X165431811Y-114920775D01*
X165546542Y-114844114D01*
X165644114Y-114746542D01*
X165720775Y-114631811D01*
X165773580Y-114504328D01*
X165796448Y-114389365D01*
X165800500Y-114368995D01*
X165800500Y-101286701D01*
X165820185Y-101219662D01*
X165836819Y-101199020D01*
X165871721Y-101164118D01*
X165966111Y-101069728D01*
X166071167Y-100925132D01*
X166152309Y-100765881D01*
X166152310Y-100765878D01*
X166207539Y-100595901D01*
X166207539Y-100595900D01*
X166207540Y-100595897D01*
X166235500Y-100419366D01*
X166235500Y-100240634D01*
X166207540Y-100064103D01*
X166207539Y-100064099D01*
X166207539Y-100064098D01*
X166152310Y-99894121D01*
X166152308Y-99894118D01*
X166141469Y-99872844D01*
X166071167Y-99734868D01*
X165966111Y-99590272D01*
X165839728Y-99463889D01*
X165839727Y-99463888D01*
X165836818Y-99460979D01*
X165803334Y-99399656D01*
X165800500Y-99373298D01*
X165800500Y-85410634D01*
X174864500Y-85410634D01*
X174864500Y-85589365D01*
X174892460Y-85765898D01*
X174892460Y-85765901D01*
X174947689Y-85935878D01*
X174947691Y-85935881D01*
X175028833Y-86095132D01*
X175133889Y-86239728D01*
X175260272Y-86366111D01*
X175404868Y-86471167D01*
X175564119Y-86552309D01*
X175564121Y-86552310D01*
X175722670Y-86603825D01*
X175734103Y-86607540D01*
X175910634Y-86635500D01*
X175910635Y-86635500D01*
X176089365Y-86635500D01*
X176089366Y-86635500D01*
X176265897Y-86607540D01*
X176265900Y-86607539D01*
X176265901Y-86607539D01*
X176435878Y-86552310D01*
X176435878Y-86552309D01*
X176435881Y-86552309D01*
X176595132Y-86471167D01*
X176739728Y-86366111D01*
X176866111Y-86239728D01*
X176971167Y-86095132D01*
X177052309Y-85935881D01*
X177107540Y-85765897D01*
X177135500Y-85589366D01*
X177135500Y-85410634D01*
X177107540Y-85234103D01*
X177107539Y-85234099D01*
X177107539Y-85234098D01*
X177052310Y-85064121D01*
X177052308Y-85064118D01*
X176982719Y-84927540D01*
X176971167Y-84904868D01*
X176866111Y-84760272D01*
X176739728Y-84633889D01*
X176595132Y-84528833D01*
X176435881Y-84447691D01*
X176435878Y-84447689D01*
X176265899Y-84392460D01*
X176148209Y-84373820D01*
X176089366Y-84364500D01*
X175910634Y-84364500D01*
X175851790Y-84373820D01*
X175734101Y-84392460D01*
X175734098Y-84392460D01*
X175564121Y-84447689D01*
X175564118Y-84447691D01*
X175404867Y-84528833D01*
X175260270Y-84633890D01*
X175133890Y-84760270D01*
X175028833Y-84904867D01*
X174947691Y-85064118D01*
X174947689Y-85064121D01*
X174892460Y-85234098D01*
X174892460Y-85234101D01*
X174864500Y-85410634D01*
X165800500Y-85410634D01*
X165800500Y-82870634D01*
X174864500Y-82870634D01*
X174864500Y-83049365D01*
X174892460Y-83225898D01*
X174892460Y-83225901D01*
X174947689Y-83395878D01*
X174947691Y-83395881D01*
X175028833Y-83555132D01*
X175133889Y-83699728D01*
X175260272Y-83826111D01*
X175404868Y-83931167D01*
X175564119Y-84012309D01*
X175564121Y-84012310D01*
X175644265Y-84038350D01*
X175734103Y-84067540D01*
X175910634Y-84095500D01*
X175910635Y-84095500D01*
X176089365Y-84095500D01*
X176089366Y-84095500D01*
X176265897Y-84067540D01*
X176265900Y-84067539D01*
X176265901Y-84067539D01*
X176435878Y-84012310D01*
X176435878Y-84012309D01*
X176435881Y-84012309D01*
X176595132Y-83931167D01*
X176739728Y-83826111D01*
X176866111Y-83699728D01*
X176971167Y-83555132D01*
X177052309Y-83395881D01*
X177063967Y-83360000D01*
X177107539Y-83225901D01*
X177107539Y-83225900D01*
X177107540Y-83225897D01*
X177135500Y-83049366D01*
X177135500Y-82870634D01*
X177107540Y-82694103D01*
X177107539Y-82694099D01*
X177107539Y-82694098D01*
X177052310Y-82524121D01*
X177052308Y-82524118D01*
X176982719Y-82387540D01*
X176971167Y-82364868D01*
X176866111Y-82220272D01*
X176739728Y-82093889D01*
X176595132Y-81988833D01*
X176435881Y-81907691D01*
X176435878Y-81907689D01*
X176265899Y-81852460D01*
X176132937Y-81831401D01*
X176089366Y-81824500D01*
X175910634Y-81824500D01*
X175867063Y-81831401D01*
X175734101Y-81852460D01*
X175734098Y-81852460D01*
X175564121Y-81907689D01*
X175564118Y-81907691D01*
X175404867Y-81988833D01*
X175260270Y-82093890D01*
X175133890Y-82220270D01*
X175028833Y-82364867D01*
X174947691Y-82524118D01*
X174947689Y-82524121D01*
X174892460Y-82694098D01*
X174892460Y-82694101D01*
X174864500Y-82870634D01*
X165800500Y-82870634D01*
X165800500Y-80330634D01*
X174864500Y-80330634D01*
X174864500Y-80509366D01*
X174869395Y-80540270D01*
X174892460Y-80685898D01*
X174892460Y-80685901D01*
X174947689Y-80855878D01*
X174947691Y-80855881D01*
X175028833Y-81015132D01*
X175133889Y-81159728D01*
X175260272Y-81286111D01*
X175404868Y-81391167D01*
X175564119Y-81472309D01*
X175564121Y-81472310D01*
X175722670Y-81523825D01*
X175734103Y-81527540D01*
X175910634Y-81555500D01*
X175910635Y-81555500D01*
X176089365Y-81555500D01*
X176089366Y-81555500D01*
X176265897Y-81527540D01*
X176265900Y-81527539D01*
X176265901Y-81527539D01*
X176435878Y-81472310D01*
X176435878Y-81472309D01*
X176435881Y-81472309D01*
X176595132Y-81391167D01*
X176739728Y-81286111D01*
X176866111Y-81159728D01*
X176971167Y-81015132D01*
X177052309Y-80855881D01*
X177107540Y-80685897D01*
X177135500Y-80509366D01*
X177135500Y-80330634D01*
X177107540Y-80154103D01*
X177107539Y-80154099D01*
X177107539Y-80154098D01*
X177052310Y-79984121D01*
X177052308Y-79984118D01*
X176982719Y-79847540D01*
X176971167Y-79824868D01*
X176866111Y-79680272D01*
X176739728Y-79553889D01*
X176595132Y-79448833D01*
X176435881Y-79367691D01*
X176435878Y-79367689D01*
X176265899Y-79312460D01*
X176148209Y-79293820D01*
X176089366Y-79284500D01*
X175910634Y-79284500D01*
X175851790Y-79293820D01*
X175734101Y-79312460D01*
X175734098Y-79312460D01*
X175564121Y-79367689D01*
X175564118Y-79367691D01*
X175404867Y-79448833D01*
X175260270Y-79553890D01*
X175133890Y-79680270D01*
X175028833Y-79824867D01*
X174947691Y-79984118D01*
X174947689Y-79984121D01*
X174892460Y-80154098D01*
X174892460Y-80154101D01*
X174880805Y-80227689D01*
X174864500Y-80330634D01*
X165800500Y-80330634D01*
X165800500Y-77790634D01*
X174864500Y-77790634D01*
X174864500Y-77969366D01*
X174869395Y-78000270D01*
X174892460Y-78145898D01*
X174892460Y-78145901D01*
X174947689Y-78315878D01*
X174947691Y-78315881D01*
X175028833Y-78475132D01*
X175133889Y-78619728D01*
X175260272Y-78746111D01*
X175404868Y-78851167D01*
X175564119Y-78932309D01*
X175564121Y-78932310D01*
X175610007Y-78947219D01*
X175734103Y-78987540D01*
X175910634Y-79015500D01*
X175910635Y-79015500D01*
X176089365Y-79015500D01*
X176089366Y-79015500D01*
X176265897Y-78987540D01*
X176265900Y-78987539D01*
X176265901Y-78987539D01*
X176435878Y-78932310D01*
X176435878Y-78932309D01*
X176435881Y-78932309D01*
X176595132Y-78851167D01*
X176739728Y-78746111D01*
X176866111Y-78619728D01*
X176971167Y-78475132D01*
X177052309Y-78315881D01*
X177107540Y-78145897D01*
X177135500Y-77969366D01*
X177135500Y-77790634D01*
X177107540Y-77614103D01*
X177107539Y-77614099D01*
X177107539Y-77614098D01*
X177052310Y-77444121D01*
X177052308Y-77444118D01*
X177029575Y-77399500D01*
X176971167Y-77284868D01*
X176866111Y-77140272D01*
X176739728Y-77013889D01*
X176595132Y-76908833D01*
X176435881Y-76827691D01*
X176435878Y-76827689D01*
X176265899Y-76772460D01*
X176148209Y-76753820D01*
X176089366Y-76744500D01*
X175910634Y-76744500D01*
X175851790Y-76753820D01*
X175734101Y-76772460D01*
X175734098Y-76772460D01*
X175564121Y-76827689D01*
X175564118Y-76827691D01*
X175404867Y-76908833D01*
X175260270Y-77013890D01*
X175133890Y-77140270D01*
X175028833Y-77284867D01*
X174947691Y-77444118D01*
X174947689Y-77444121D01*
X174892460Y-77614098D01*
X174892460Y-77614101D01*
X174880805Y-77687689D01*
X174864500Y-77790634D01*
X165800500Y-77790634D01*
X165800500Y-75250634D01*
X174864500Y-75250634D01*
X174864500Y-75429365D01*
X174892460Y-75605898D01*
X174892460Y-75605901D01*
X174947689Y-75775878D01*
X174947691Y-75775881D01*
X175028833Y-75935132D01*
X175133889Y-76079728D01*
X175260272Y-76206111D01*
X175404868Y-76311167D01*
X175564119Y-76392309D01*
X175564121Y-76392310D01*
X175644462Y-76418414D01*
X175734103Y-76447540D01*
X175910634Y-76475500D01*
X175910635Y-76475500D01*
X176089365Y-76475500D01*
X176089366Y-76475500D01*
X176265897Y-76447540D01*
X176265900Y-76447539D01*
X176265901Y-76447539D01*
X176435878Y-76392310D01*
X176435878Y-76392309D01*
X176435881Y-76392309D01*
X176595132Y-76311167D01*
X176739728Y-76206111D01*
X176866111Y-76079728D01*
X176971167Y-75935132D01*
X177052309Y-75775881D01*
X177107540Y-75605897D01*
X177135500Y-75429366D01*
X177135500Y-75250634D01*
X177107540Y-75074103D01*
X177107539Y-75074099D01*
X177107539Y-75074098D01*
X177052310Y-74904121D01*
X177052308Y-74904118D01*
X177034872Y-74869896D01*
X176971167Y-74744868D01*
X176866111Y-74600272D01*
X176739728Y-74473889D01*
X176595132Y-74368833D01*
X176435881Y-74287691D01*
X176435878Y-74287689D01*
X176265899Y-74232460D01*
X176148209Y-74213820D01*
X176089366Y-74204500D01*
X175910634Y-74204500D01*
X175851790Y-74213820D01*
X175734101Y-74232460D01*
X175734098Y-74232460D01*
X175564121Y-74287689D01*
X175564118Y-74287691D01*
X175404867Y-74368833D01*
X175260270Y-74473890D01*
X175133890Y-74600270D01*
X175028833Y-74744867D01*
X174947691Y-74904118D01*
X174947689Y-74904121D01*
X174892460Y-75074098D01*
X174892460Y-75074101D01*
X174864500Y-75250634D01*
X165800500Y-75250634D01*
X165800500Y-72710634D01*
X174864500Y-72710634D01*
X174864500Y-72889365D01*
X174892460Y-73065898D01*
X174892460Y-73065901D01*
X174947689Y-73235878D01*
X174947691Y-73235881D01*
X175028833Y-73395132D01*
X175133889Y-73539728D01*
X175260272Y-73666111D01*
X175404868Y-73771167D01*
X175564119Y-73852309D01*
X175564121Y-73852310D01*
X175700636Y-73896666D01*
X175734103Y-73907540D01*
X175910634Y-73935500D01*
X175910635Y-73935500D01*
X176089365Y-73935500D01*
X176089366Y-73935500D01*
X176265897Y-73907540D01*
X176265900Y-73907539D01*
X176265901Y-73907539D01*
X176435878Y-73852310D01*
X176435878Y-73852309D01*
X176435881Y-73852309D01*
X176595132Y-73771167D01*
X176739728Y-73666111D01*
X176866111Y-73539728D01*
X176971167Y-73395132D01*
X177052309Y-73235881D01*
X177107540Y-73065897D01*
X177135500Y-72889366D01*
X177135500Y-72710634D01*
X177107540Y-72534103D01*
X177107539Y-72534099D01*
X177107539Y-72534098D01*
X177052310Y-72364121D01*
X177052308Y-72364118D01*
X177034884Y-72329920D01*
X176971167Y-72204868D01*
X176866111Y-72060272D01*
X176739728Y-71933889D01*
X176595132Y-71828833D01*
X176435881Y-71747691D01*
X176435878Y-71747689D01*
X176265899Y-71692460D01*
X176148209Y-71673820D01*
X176089366Y-71664500D01*
X175910634Y-71664500D01*
X175851790Y-71673820D01*
X175734101Y-71692460D01*
X175734098Y-71692460D01*
X175564121Y-71747689D01*
X175564118Y-71747691D01*
X175404867Y-71828833D01*
X175260270Y-71933890D01*
X175133890Y-72060270D01*
X175028833Y-72204867D01*
X174947691Y-72364118D01*
X174947689Y-72364121D01*
X174892460Y-72534098D01*
X174892460Y-72534101D01*
X174864500Y-72710634D01*
X165800500Y-72710634D01*
X165800500Y-70031004D01*
X165773581Y-69895677D01*
X165773580Y-69895676D01*
X165773580Y-69895672D01*
X165773578Y-69895667D01*
X165720778Y-69768195D01*
X165720771Y-69768182D01*
X165644114Y-69653458D01*
X165644111Y-69653454D01*
X165546545Y-69555888D01*
X165546541Y-69555885D01*
X165431817Y-69479228D01*
X165431804Y-69479221D01*
X165304332Y-69426421D01*
X165304322Y-69426418D01*
X165168995Y-69399500D01*
X165168993Y-69399500D01*
X150668993Y-69399500D01*
X143568993Y-69399500D01*
X135368994Y-69399500D01*
X135368993Y-69399500D01*
X100368994Y-69399500D01*
X100231006Y-69399500D01*
X100231004Y-69399500D01*
X100095677Y-69426418D01*
X100095667Y-69426421D01*
X99968192Y-69479222D01*
X99853454Y-69555887D01*
X99755887Y-69653454D01*
X99679222Y-69768192D01*
X99626421Y-69895667D01*
X99626418Y-69895677D01*
X99599500Y-70031003D01*
X99599500Y-70031004D01*
X99599500Y-70031006D01*
X99599500Y-70168994D01*
X99599500Y-70168996D01*
X99599499Y-70168996D01*
X99627117Y-70307834D01*
X99629500Y-70332026D01*
X99629500Y-74969154D01*
X99609815Y-75036193D01*
X99557011Y-75081948D01*
X99548834Y-75085336D01*
X99452669Y-75121203D01*
X99452664Y-75121206D01*
X99337455Y-75207452D01*
X99337452Y-75207455D01*
X99251206Y-75322664D01*
X99251202Y-75322671D01*
X99200908Y-75457517D01*
X99194501Y-75517116D01*
X99194501Y-75517123D01*
X99194500Y-75517135D01*
X97500500Y-75517135D01*
X97500500Y-66624500D01*
X97520185Y-66557461D01*
X97572989Y-66511706D01*
X97624500Y-66500500D01*
X182375500Y-66500500D01*
X182442539Y-66520185D01*
G37*
%TD.AperFunction*%
%TD*%
M02*
