M48
; DRILL file KiCad 10.0.6 date 2026-09-05T18:54:36
; FORMAT={-:-/ absolute / metric / decimal}
; #@! TF.CreationDate,2026-09-05T18:54:36+02:00
; #@! TF.GenerationSoftware,Kicad,Pcbnew,10.0.6
; #@! TF.FileFunction,Plated,1,4,PTH
FMAT,2
METRIC
; #@! TA.AperFunction,Plated,PTH,ViaDrill
T1C0.300
; #@! TA.AperFunction,Plated,PTH,ComponentDrill
T2C0.800
%
G90
G05
T1
X144.8Y-78.0
X161.5Y-110.5
T2
X100.33Y-76.2
X100.33Y-78.74
X100.33Y-81.28
X100.33Y-83.82
X100.33Y-86.36
X100.33Y-88.9
X100.33Y-91.44
X100.33Y-93.98
X100.33Y-96.52
X100.33Y-99.06
X100.33Y-101.6
X100.33Y-104.14
X100.33Y-106.68
X100.33Y-109.22
X100.33Y-111.76
X100.33Y-114.3
X100.33Y-116.84
X100.33Y-119.38
X100.33Y-121.92
X100.33Y-124.46
X125.73Y-76.2
X125.73Y-78.74
X125.73Y-81.28
X125.73Y-83.82
X125.73Y-86.36
X125.73Y-88.9
X125.73Y-91.44
X125.73Y-93.98
X125.73Y-96.52
X125.73Y-99.06
X125.73Y-101.6
X125.73Y-104.14
X125.73Y-106.68
X125.73Y-109.22
X125.73Y-111.76
X125.73Y-114.3
X125.73Y-116.84
X125.73Y-119.38
X125.73Y-121.92
X125.73Y-124.46
X134.08Y-78.1
X134.62Y-114.3
X135.26Y-72.65
X137.16Y-114.3
X137.36Y-99.19
X137.36Y-106.81
X137.8Y-72.65
X139.7Y-114.3
X139.9Y-99.19
X139.9Y-106.81
X140.34Y-72.65
X141.7Y-78.1
X142.24Y-114.3
X142.44Y-99.19
X142.44Y-106.81
X150.6Y-75.34
X150.6Y-77.88
X150.6Y-80.42
X150.6Y-82.96
X162.56Y-100.33
X165.1Y-100.33
X167.64Y-100.33
X170.18Y-100.33
X176.0Y-72.8
X176.0Y-75.34
X176.0Y-77.88
X176.0Y-80.42
X176.0Y-82.96
X176.0Y-85.5
M30
